<svg version="1.2" xmlns="http://www.w3.org/2000/svg" viewBox="0 0 1500 795" width="1500" height="795">
	<title>15442304_5613958-ai</title>
	<defs>
		<clipPath clipPathUnits="userSpaceOnUse" id="cp1">
			<path d="m1015.61 720.15h-129.91v-83.95h129.91z"/>
		</clipPath>
		<clipPath clipPathUnits="userSpaceOnUse" id="cp2">
			<path d="m976.69 639.21h-90.99v-83.94h90.99z"/>
		</clipPath>
		<clipPath clipPathUnits="userSpaceOnUse" id="cp3">
			<path d="m885.7 720.15h-129.72v-95.49h129.72z"/>
		</clipPath>
		<clipPath clipPathUnits="userSpaceOnUse" id="cp4">
			<path d="m1156.67 720.92h-129.72v-160.96h129.72z"/>
		</clipPath>
		<clipPath clipPathUnits="userSpaceOnUse" id="cp5">
			<path d="m1156.67 560.28h-129.72v-160.96h129.72z"/>
		</clipPath>
		<clipPath clipPathUnits="userSpaceOnUse" id="cp6">
			<path d="m1314.65 433.62h-80.24v-100.35h80.24z"/>
		</clipPath>
		<clipPath clipPathUnits="userSpaceOnUse" id="cp7">
			<path d="m1235.99 334.89h-80.24v-100.34h80.24z"/>
		</clipPath>
		<clipPath clipPathUnits="userSpaceOnUse" id="cp8">
			<path d="m1235.99 433.62h-82.24v-100.35h82.24z"/>
		</clipPath>
		<clipPath clipPathUnits="userSpaceOnUse" id="cp9">
			<path d="m1322.06 720.92h-169.39v-146.23h169.39z"/>
		</clipPath>
		<clipPath clipPathUnits="userSpaceOnUse" id="cp10">
			<path d="m1322.06 579.85h-169.39v-146.23h169.39z"/>
		</clipPath>
		<clipPath clipPathUnits="userSpaceOnUse" id="cp11">
			<path d="m583.63 427.73c-1.14 0.18-24.5 4.42-24.5 4.42 0 0 3.36 12.07 14.23 10.37 10.86-1.7 10.27-14.79 10.27-14.79z"/>
		</clipPath>
		<clipPath clipPathUnits="userSpaceOnUse" id="cp12">
			<path d="m1008.38 227.51c1.25-0.66 27.17-13.75 27.17-13.75 0 0 5.61 14.11-6.25 20.46-11.86 6.35-20.92-6.71-20.92-6.71z"/>
		</clipPath>
		<clipPath clipPathUnits="userSpaceOnUse" id="cp13">
			<path d="m1077.98 419.11h-111.85v-64.83h111.85z"/>
		</clipPath>
		<clipPath clipPathUnits="userSpaceOnUse" id="cp14">
			<path d="m917.45 441.16h-111.84v-64.83h111.84z"/>
		</clipPath>
		<clipPath clipPathUnits="userSpaceOnUse" id="cp15">
			<path d="m797.62 229.49c-1.31-0.57-28.4-11.66-28.4-11.66 0 0-4.52 14.76 7.9 20.21 12.41 5.44 20.5-8.55 20.5-8.55z"/>
		</clipPath>
	</defs>
	<style>
		tspan { white-space:pre } 
		.s0 { fill: #ffffff } 
		.t1 { font-size: 36px;fill: #5f2a67;font-weight: 800;font-family: "Poppins-ExtraBold", "Poppins" } 
		.s2 { fill: #f3e9f4 } 
		.s3 { fill: #ccbcd3 } 
		.s4 { fill: #ad9bbc } 
		.s5 { fill: #ddcfe2 } 
		.s6 { fill: #c0b1c9 } 
		.s7 { fill: #d3beaf } 
		.s8 { fill: #a56259 } 
		.s9 { opacity: .6;mix-blend-mode: multiply;fill: #d6d3d0 } 
		.s10 { fill: #cfac74 } 
		.s11 { fill: #bc8f5e } 
		.s12 { fill: #803826 } 
		.s13 { mix-blend-mode: multiply;fill: #d6d3d0 } 
		.s14 { fill: #a8624f } 
		.s15 { fill: #5f2a67 } 
		.s16 { fill: #dcb485 } 
		.s17 { fill: #812a2c } 
		.s18 { fill: #d28570 } 
		.s19 { fill: #6e4228 } 
		.s20 { fill: #59341f } 
		.s21 { fill: #7a5231 } 
		.s22 { fill: #4a261e } 
		.s23 { fill: #dbb182 } 
		.s24 { fill: #ddb340 } 
		.s25 { fill: #ce9a78 } 
		.s26 { fill: #462256 } 
		.s27 { fill: #98296b } 
		.s28 { fill: #d79f36 } 
		.s29 { opacity: .4;mix-blend-mode: multiply;fill: #d6d3d0 } 
		.s30 { fill: #d08170 } 
		.s31 { fill: #572f1d } 
		.s32 { fill: #a64050 } 
		.s33 { fill: #6a2225 } 
		.s34 { fill: #774f31 } 
		.s35 { fill: #c1542e } 
		.s36 { fill: #7b3838 } 
		.s37 { fill: #703b7a } 
		.s38 { fill: #5a2818 } 
		.s39 { fill: #65361f } 
		.s40 { fill: #7c4b2a } 
	</style>
	<g id="BACKGROUND">
		<path id="&lt;Path&gt;" class="s0" d="m1500 966h-1500v-1000h1500z"/>
	</g>
	<g id="OBJECTS">
		<g id="&lt;Group&gt;">
			<text id="WORLD HUMANITARIAN DAY
" style="transform: matrix(2,0,0,2,226.962,888.318)" >
				<tspan x="0" y="0" class="t1">WORLD HUMANITARIAN DAY
</tspan>
			</text>
			<g id="&lt;Group&gt;">
				<g id="&lt;Group&gt;">
					<path id="&lt;Path&gt;" class="s2" d="m276.8 705.8c-61.2-67.8-113.8-121.4-109.7-212.1 4-90.6 68.6-180.5 150.7-221.6 46.6-23.4 100.5-30.8 146-56.2 69.6-39 110.8-114.9 178.4-157.1 74.4-46.3 177.4-42.9 248.4 8.2 53.2 38.3 87.7 98.9 144 132.7 48.1 28.8 106.7 34.7 157.9 57.6 91 40.7 151.6 135.5 159.3 233.6 7.7 98.1-34 160.9-102.9 232.1z"/>
					<g id="&lt;Group&gt;">
						<g id="&lt;Group&gt;">
							<g id="&lt;Group&gt;">
								<path id="&lt;Path&gt;" class="s3" d="m410.9 757.5c6.4-66.8-6.4-136.7-45.7-192.6-39.2-56-107.2-95.8-178.4-94.8-1.2 57.7 17.4 114.9 50.3 163.5 32.9 48.6 81.4 87.7 137.4 111"/>
								<g id="&lt;Group&gt;">
									<path id="&lt;Path&gt;" class="s4" d="m410.5 756.8c-5.5-32.7-50-89.7-82.1-132.4-32.7-43.6-76-89.9-121.4-134.6 74.1 72.9 135.8 156.6 181.7 232.7 7.3 12.1 16.1 22.2 21.8 34.3z"/>
									<path id="&lt;Path&gt;" class="s4" d="m308.7 519.9c-5.8 19.5-12.5 38.3-22.6 54.3 0.6 0.8 1.5 2.1 2.1 2.9 8-13.6 18-42.2 20.5-57.2z"/>
									<path id="&lt;Path&gt;" class="s4" d="m369.8 571.5c-12.1 19.7-25.5 39.9-43.5 52.1 0.6 0.8 1.5 2.1 2.1 2.9 20.3-16.8 31-31.3 41.4-55z"/>
									<path id="&lt;Path&gt;" class="s4" d="m402.7 638.1c-6 10.2-23 26.8-42.6 35.9 0.3 0.7 0.8 1.8 1.2 2.5 25.6-12.2 37.2-28.8 41.4-38.4z"/>
									<path id="&lt;Path&gt;" class="s4" d="m226.2 586.5c25.7 10.3 60.4 15.7 82.3 14.8 0.7 0.9 1.8 2.6 2.5 3.6-25.5 0.1-59.1-6.1-84.8-18.4z"/>
									<path id="&lt;Path&gt;" class="s4" d="m205.9 535.7c22.8 9.3 40.4 13.3 61.1 17.8 0.6 0.9 0.3 0.7 0.9 1.6-23.6-3.7-39.2-8.4-62-19.4z"/>
									<path id="&lt;Path&gt;" class="s4" d="m262.7 632.4c22.7 10.2 65 16.3 82.2 17.7 0.7 0.8 1.8 2.3 2.5 3.2-17.9-1.6-61.8-9.1-84.7-20.9z"/>
									<path id="&lt;Path&gt;" class="s4" d="m335.9 708c20.4 2.1 35.8 0.7 45.4-4.1 0.5 0.7 1.4 1.8 2 2.5-10.6 5.6-37.3 5.2-47.4 1.6z"/>
								</g>
							</g>
							<g id="&lt;Group&gt;">
								<path id="&lt;Path&gt;" class="s3" d="m448.1 752.4c53.2-25.2 99.5-65.1 122.6-117.4 23.2-52.3 20.5-117.5-14.5-166.9-43.8 24.7-77.8 63.1-98.5 107.7-20.6 44.6-26.7 95.8-17.3 145.4"/>
								<g id="&lt;Group&gt;">
									<path id="&lt;Path&gt;" class="s4" d="m448.5 751.8c21.9-18.3 43.3-74.8 59.9-116.1 17-42.3 31-93.2 42.7-144.8-19.1 84.3-52.3 164.5-87.3 230.4-5.6 10.5-9 21.1-15.3 30.5z"/>
									<path id="&lt;Path&gt;" class="s4" d="m577.4 575.5c-17.5 4.5-34.8 8.2-51.6 8.2-0.3 0.8-0.8 2-1.1 2.8 13.9-0.5 40.2-6.1 52.7-11z"/>
									<path id="&lt;Path&gt;" class="s4" d="m568 641.2c-20.6 0.3-42.2-0.2-60-7.4-0.3 0.7-0.8 2-1.1 2.7 22.3 6.8 38.3 7.9 61.1 4.7z"/>
									<path id="&lt;Path&gt;" class="s4" d="m533.7 693.7c-10.5 0.3-31.1-4.2-47.3-13.9-0.3 0.5-0.9 1.4-1.3 1.9 21.5 12.5 39.4 13.3 48.6 12z"/>
									<path id="&lt;Path&gt;" class="s4" d="m487.9 547.2c4.6 22.6 17.2 49.3 28.4 64.2-0.5 0.9-1.2 2.5-1.6 3.4-12.3-17.8-23.7-44.1-26.8-67.6z"/>
									<path id="&lt;Path&gt;" class="s4" d="m516.2 510.5c4 20.1 9.4 34.2 16 50.7-0.4 0.8-0.4 0.5-0.8 1.3-8.5-18.1-12.5-31.2-15.2-52z"/>
									<path id="&lt;Path&gt;" class="s4" d="m470.9 593.2c3.3 20.4 18.9 52.7 26.2 65.3-0.3 0.9-0.9 2.4-1.2 3.2-7.5-13.2-22.8-47.2-25-68.5z"/>
									<path id="&lt;Path&gt;" class="s4" d="m449.4 677.9c8.2 15.2 16.6 25.4 24.8 30-0.3 0.7-0.7 1.8-0.9 2.5-9.3-4.9-21.8-23.8-23.9-32.5z"/>
								</g>
							</g>
							<g id="&lt;Group&gt;">
								<path id="&lt;Path&gt;" class="s5" d="m417 696c-48-39.9-83.6-92.7-101.2-150.1-17.6-57.3-17-119 1.6-175.2 57.4 35.1 105.3 88.1 122.4 149.8 17.1 61.7 9.7 120.7-22.8 175.5z"/>
								<g id="&lt;Group&gt;">
									<path id="&lt;Path&gt;" class="s6" d="m416.3 695.5c5-38.7-11.6-99.8-25.4-147.1-14.2-48.3-36.2-98.5-60.5-146.3 39.6 78.1 65.8 171 81.4 256.7 2.5 13.7 3.3 22.8 4.5 36.7z"/>
									<path id="&lt;Path&gt;" class="s6" d="m396.4 452c-6.9 14.4-14.9 29.1-25.7 41.4 0.3 0.9 0.7 2.3 1 3.2 10.1-12.9 19-28.9 24.7-44.6z"/>
									<path id="&lt;Path&gt;" class="s6" d="m429.7 510.3c-6.9 14.4-30 31.4-40.4 37.4 0.3 0.9 0.7 2.4 0.9 3.2 10.7-6.4 33.8-24.9 39.5-40.6z"/>
									<path id="&lt;Path&gt;" class="s6" d="m445.5 580.3c-8.7 10.8-32.6 20.7-43.1 23.8 0.1 0.7 0.2 2.1 0.3 2.8 10.8-3.3 34.9-14.4 42.8-26.6z"/>
									<path id="&lt;Path&gt;" class="s6" d="m321.7 501.9c18 9.1 37.9 17.6 59.6 21.2 0.2 1.1 0.7 3 0.9 4.1-21.2-4.7-43.1-13.8-60.5-25.3z"/>
									<path id="&lt;Path&gt;" class="s6" d="m308.2 448.4c15.9 8.2 33.7 17.5 52.7 20.9 0.2 1 0.2 0.9 0.5 1.9-18.6-4.3-37.8-12.5-53.2-22.8z"/>
									<path id="&lt;Path&gt;" class="s6" d="m334.9 566.7c15.6 9.3 48.3 11.2 62 10.5 0.3 0.9 0.8 2.6 1.2 3.5-14.3 0.6-47.9-2.7-63.2-14z"/>
									<path id="&lt;Path&gt;" class="s6" d="m361.9 631.2c12.3 6.8 38.3 7.1 49.2 6.1 0.3 0.8 0.7 2.1 0.9 2.8-11.3 0.9-38-0.6-50.1-8.9z"/>
								</g>
							</g>
							<g id="&lt;Group&gt;">
								<path id="&lt;Path&gt;" class="s5" d="m378.3 747c-9.5-42.6-35.9-89.6-79-113.1-43.1-23.4-102.9-27.9-152-12.8 39.4 79.9 138.3 122.1 231 125.9z"/>
								<g id="&lt;Group&gt;">
									<path id="&lt;Path&gt;" class="s6" d="m378.3 747c-14.1-20.2-59.9-45.6-93.4-64.9-34.2-19.7-75.6-38.2-117.8-55 68.8 27.4 133.8 65.6 186.7 103.2 8.4 6 17.1 10.2 24.5 16.7z"/>
									<path id="&lt;Path&gt;" class="s6" d="m238.3 618.1c2.9 14.7 5.2 29.1 4.4 42.6 0.6 0.4 1.7 1 2.3 1.3 0.2-11.2-3.2-33.2-6.7-43.9z"/>
									<path id="&lt;Path&gt;" class="s6" d="m292.2 635.1c-0.7 16.6-2.1 33.8-8.9 47.1 0.6 0.4 1.7 1 2.3 1.3 6.6-17 8.2-29.7 6.6-48.4z"/>
									<path id="&lt;Path&gt;" class="s6" d="m334.1 670.1c-0.2 8.5-4.9 24.4-13.7 36.1 0.5 0.3 1.2 0.9 1.6 1.3 11.3-15.5 12.8-29.8 12.1-37.4z"/>
									<path id="&lt;Path&gt;" class="s6" d="m210.8 686c18.9-0.4 41.5-6.7 54.4-13.6 0.8 0.5 2 1.3 2.7 1.7-15.2 7.4-37.6 12.8-57.1 11.9z"/>
									<path id="&lt;Path&gt;" class="s6" d="m181.7 658c16.8-0.3 28.7-2.7 42.7-5.6 0.6 0.4 0.4 0.4 1 0.8-15.4 4.2-26.4 5.6-43.7 4.8z"/>
									<path id="&lt;Path&gt;" class="s6" d="m248.1 706.2c17 0.3 44.4-7.6 55.2-11.7 0.7 0.4 1.9 1.1 2.6 1.4-11.3 4.2-40.1 11.6-57.8 10.3z"/>
									<path id="&lt;Path&gt;" class="s6" d="m317.2 735.7c13-4.4 21.8-9.7 25.9-15.7 0.6 0.3 1.5 0.8 2.1 1.1-4.5 6.8-20.7 14.1-28 14.6z"/>
								</g>
							</g>
						</g>
						<g id="&lt;Group&gt;">
							<g id="&lt;Group&gt;">
								<path id="&lt;Path&gt;" class="s3" d="m1039.8 699.7c24.3-57.6 33.2-123.6 15.5-185.1-17.7-61.5-64.5-117.2-125.6-137.5-17.3 51-17.6 107.5-3.2 160.6 14.4 53 44.7 102.3 85.9 139.7"/>
								<g id="&lt;Group&gt;">
									<path id="&lt;Path&gt;" class="s4" d="m1039.7 699c4.6-30.7-17.3-94.8-32.6-142.3-15.7-48.6-39.5-102.8-65.7-156 42.7 86.9 71.7 179.8 89.4 261.2 2.8 13 7.4 24.6 8.9 37.1z"/>
									<path id="&lt;Path&gt;" class="s4" d="m1019.8 457.7c-10.6 15.6-21.6 30.4-34.7 41.6 0.3 0.9 0.7 2.3 1 3.2 10.6-9.7 27.3-32.1 33.7-44.8z"/>
									<path id="&lt;Path&gt;" class="s4" d="m1057.3 521.9c-15.9 13.9-33 27.9-51.9 33.4 0.3 0.9 0.8 2.3 1 3.2 22.1-8.9 35.4-18.7 50.9-36.6z"/>
									<path id="&lt;Path&gt;" class="s4" d="m1066.5 591c-7.9 7.2-27.1 17-46.5 19.2 0.1 0.7 0.3 1.9 0.4 2.6 25.3-3.3 39.8-14.6 46.1-21.8z"/>
									<path id="&lt;Path&gt;" class="s4" d="m930.5 492.4c19 16.9 47.1 32 66.1 37.7 0.3 1.1 0.8 2.9 1 4-21.7-7.5-48.7-23.1-67.1-41.7z"/>
									<path id="&lt;Path&gt;" class="s4" d="m927.6 441.2c16.7 15 30.6 23.8 47.1 34 0.2 1 0 0.7 0.2 1.7-19-10.3-31.1-19.2-47.3-35.7z"/>
									<path id="&lt;Path&gt;" class="s4" d="m948.7 544.2c16.5 15.8 50.8 33.9 65.2 40.2 0.3 0.9 0.9 2.6 1.2 3.6-14.9-6.7-50.2-26.4-66.4-43.8z"/>
									<path id="&lt;Path&gt;" class="s4" d="m989.8 633.3c16.9 7.9 30.4 11.3 39.9 9.8 0.3 0.8 0.7 2.1 1 2.9-10.6 1.8-33.3-6.5-40.9-12.7z"/>
								</g>
							</g>
							<g id="&lt;Group&gt;">
								<path id="&lt;Path&gt;" class="s5" d="m1008.1 721.1c6.4-46.8-3-104.6-38.5-144.6-35.6-40-95.7-66.9-152.1-69.9 10.2 95.9 96.3 175.8 190.6 214.5z"/>
								<g id="&lt;Group&gt;">
									<path id="&lt;Path&gt;" class="s6" d="m1008.1 721.1c-6.9-25.9-44.5-68.8-71.7-100.9-27.8-32.9-63.6-67.3-100.8-100.2 60.7 53.7 113.2 116.9 153.5 174.9 6.5 9.3 13.8 16.8 19 26.2z"/>
									<path id="&lt;Path&gt;" class="s6" d="m912.6 537.6c-2.5 16-5.7 31.5-11.7 45 0.5 0.6 1.4 1.6 1.9 2.2 4.5-11.4 9.3-35 9.8-47.2z"/>
									<path id="&lt;Path&gt;" class="s6" d="m961.8 575c-7 16.6-15 33.7-27.1 44.6 0.5 0.6 1.3 1.6 1.8 2.2 13.3-14.8 19.9-27.1 25.3-46.8z"/>
									<path id="&lt;Path&gt;" class="s6" d="m991.8 626.4c-3.5 8.5-14.4 23-27.9 31.5 0.3 0.5 0.8 1.4 1.1 1.9 17.6-11.5 24.5-25.5 26.8-33.4z"/>
									<path id="&lt;Path&gt;" class="s6" d="m858.3 596.3c19.8 6.7 45.5 8.7 61.5 6.6 0.5 0.7 1.5 2 2.1 2.7-18.6 1.8-43.7-1.1-63.6-9.3z"/>
									<path id="&lt;Path&gt;" class="s6" d="m839 556.9c17.4 6 30.7 8 46.2 10.3 0.5 0.7 0.2 0.6 0.7 1.2-17.5-1.4-29.3-4.2-46.9-11.5z"/>
									<path id="&lt;Path&gt;" class="s6" d="m889.1 630.8c17.5 6.7 48.9 8.9 61.6 8.9 0.5 0.6 1.5 1.7 2.1 2.4-13.2-0.1-45.9-3.3-63.7-11.3z"/>
									<path id="&lt;Path&gt;" class="s6" d="m949.3 686.7c15.1 0.4 26.2-1.7 32.8-6.2 0.4 0.5 1.2 1.4 1.6 1.9-7.2 5.2-26.7 6.6-34.4 4.3z"/>
								</g>
							</g>
						</g>
					</g>
					<g id="&lt;Group&gt;">
						<g id="&lt;Group&gt;">
							<path id="&lt;Path&gt;" class="s7" d="m1040.1 718.3c0 7.6-63.6 13.8-142 13.8-78.5 0-142.1-6.2-142.1-13.8 0-7.6 63.6-13.8 142.1-13.8 78.4 0 142 6.2 142 13.8z"/>
							<g id="&lt;Group&gt;">
								<g id="&lt;Group&gt;">
									<path id="&lt;Path&gt;" class="s8" d="m1015.6 720.2h-129.9v-84h129.9z"/>
									<g id="&lt;Group&gt;">
										<path id="&lt;Path&gt;" class="s9" d="m915.1 701c-16.5-7.9-23.5-28.2-29.4-45.4v64.6h129.9v-11.2c-31.3 2.7-71 6.1-100.5-8z"/>
										<g id="&lt;Clip Group&gt;" clip-path="url(#cp1)">
											<path id="&lt;Path&gt;" class="s10" d="m961 695.8h-20.7v-108.7h20.7z"/>
											<path id="&lt;Path&gt;" class="s0" d="m953.5 681.1h-5.7v-108.6h5.7z"/>
										</g>
									</g>
								</g>
								<g id="&lt;Group&gt;">
									<path id="&lt;Path&gt;" class="s8" d="m976.7 639.2h-91v-83.9h91z"/>
									<g id="&lt;Group&gt;">
										<path id="&lt;Path&gt;" class="s9" d="m906.3 620.1c-11.6-8-16.5-28.3-20.6-45.4v64.5h91v-11.2c-21.9 2.8-49.8 6.1-70.4-7.9z"/>
										<g id="&lt;Clip Group&gt;" clip-path="url(#cp2)">
											<path id="&lt;Path&gt;" class="s10" d="m938.4 614.8h-14.4v-108.6h14.4z"/>
											<path id="&lt;Path&gt;" class="s0" d="m933.2 600.2h-4v-108.7h4z"/>
										</g>
									</g>
								</g>
								<g id="&lt;Group&gt;">
									<path id="&lt;Path&gt;" class="s10" d="m885.7 720.2h-129.7v-95.5h129.7z"/>
									<g id="&lt;Group&gt;">
										<path id="&lt;Path&gt;" class="s9" d="m785.4 698.4c-16.5-9-23.6-32.1-29.4-51.6v73.4h129.7v-12.8c-31.2 3.2-70.9 7-100.3-9z"/>
										<g id="&lt;Clip Group&gt;" clip-path="url(#cp3)">
											<path id="&lt;Path&gt;" class="s11" d="m831.1 692.4h-20.6v-123.6h20.6z"/>
											<path id="&lt;Path&gt;" class="s0" d="m823.6 675.8h-5.6v-123.6h5.6z"/>
										</g>
									</g>
								</g>
							</g>
						</g>
						<g id="&lt;Group&gt;">
							<path id="&lt;Path&gt;" class="s7" d="m1346.4 720.2c0 7.6-73.2 13.8-163.5 13.8-90.3 0-163.5-6.2-163.5-13.8 0-7.7 73.2-13.9 163.5-13.9 90.3 0 163.5 6.2 163.5 13.9z"/>
							<g id="&lt;Group&gt;">
								<g id="&lt;Group&gt;">
									<path id="&lt;Path&gt;" class="s8" d="m1156.7 720.9h-129.7v-160.9h129.7z"/>
									<g id="&lt;Group&gt;">
										<path id="&lt;Path&gt;" class="s9" d="m1056.3 684.2c-16.5-15.2-23.5-54.1-29.3-87v123.7h129.7v-21.4c-31.3 5.2-70.9 11.7-100.4-15.3z"/>
										<g id="&lt;Clip Group&gt;" clip-path="url(#cp4)">
											<path id="&lt;Path&gt;" class="s10" d="m1102.1 674.2h-20.6v-208.4h20.6z"/>
											<path id="&lt;Path&gt;" class="s0" d="m1094.6 646.1h-5.6v-208.4h5.6z"/>
										</g>
									</g>
								</g>
								<g id="&lt;Group&gt;">
									<path id="&lt;Path&gt;" class="s8" d="m1156.7 560.3h-129.7v-161h129.7z"/>
									<g id="&lt;Group&gt;">
										<path id="&lt;Path&gt;" class="s9" d="m1056.3 523.5c-16.5-15.1-23.5-54.1-29.3-86.9v123.7h129.7v-21.5c-31.3 5.3-70.9 11.7-100.4-15.3z"/>
										<g id="&lt;Clip Group&gt;" clip-path="url(#cp5)">
											<path id="&lt;Path&gt;" class="s10" d="m1102.1 513.5h-20.6v-208.3h20.6z"/>
											<path id="&lt;Path&gt;" class="s0" d="m1094.6 485.5h-5.6v-208.4h5.6z"/>
										</g>
									</g>
								</g>
								<g id="&lt;Group&gt;">
									<path id="&lt;Path&gt;" class="s8" d="m1314.7 433.6h-80.3v-100.3h80.3z"/>
									<g id="&lt;Group&gt;">
										<path id="&lt;Path&gt;" class="s9" d="m1252.6 410.7c-10.2-9.4-14.6-33.7-18.2-54.2v77.1h80.3v-13.4c-19.4 3.3-43.9 7.3-62.1-9.5z"/>
										<g id="&lt;Clip Group&gt;" clip-path="url(#cp6)">
											<path id="&lt;Path&gt;" class="s11" d="m1280.9 404.5h-12.7v-129.9h12.7z"/>
											<path id="&lt;Path&gt;" class="s0" d="m1276.3 387h-3.5v-129.9h3.5z"/>
										</g>
									</g>
								</g>
								<g id="&lt;Group&gt;">
									<path id="&lt;Path&gt;" class="s10" d="m1236 334.9h-80.2v-100.3h80.2z"/>
									<g id="&lt;Group&gt;">
										<path id="&lt;Path&gt;" class="s9" d="m1173.9 312c-10.2-9.5-14.5-33.7-18.1-54.2v77.1h80.2v-13.4c-19.3 3.3-43.9 7.3-62.1-9.5z"/>
										<g id="&lt;Clip Group&gt;" clip-path="url(#cp7)">
											<path id="&lt;Path&gt;" class="s11" d="m1202.2 305.7h-12.7v-129.9h12.7z"/>
											<path id="&lt;Path&gt;" class="s0" d="m1197.6 288.3h-3.5v-129.9h3.5z"/>
										</g>
									</g>
								</g>
								<g id="&lt;Group&gt;">
									<path id="&lt;Path&gt;" class="s10" d="m1236 433.6h-82.2v-100.3h82.2z"/>
									<g id="&lt;Group&gt;">
										<path id="&lt;Path&gt;" class="s9" d="m1172.4 410.7c-10.5-9.4-14.9-33.7-18.6-54.2v77.1h82.2v-13.4c-19.8 3.3-45 7.3-63.6-9.5z"/>
										<g id="&lt;Clip Group&gt;" clip-path="url(#cp8)">
											<path id="&lt;Path&gt;" class="s11" d="m1201.4 404.5h-13.1v-129.9h13.1z"/>
											<path id="&lt;Path&gt;" class="s0" d="m1196.7 387h-3.6v-129.9h3.6z"/>
										</g>
									</g>
								</g>
								<g id="&lt;Group&gt;">
									<path id="&lt;Path&gt;" class="s10" d="m1322.1 720.9h-169.4v-146.2h169.4z"/>
									<g id="&lt;Group&gt;">
										<path id="&lt;Path&gt;" class="s9" d="m1191 687.5c-21.5-13.7-30.7-49.1-38.3-78.9v112.3h169.4v-19.5c-40.8 4.8-92.6 10.7-131.1-13.9z"/>
										<g id="&lt;Clip Group&gt;" clip-path="url(#cp9)">
											<path id="&lt;Path&gt;" class="s11" d="m1250.8 678.4h-26.9v-189.3h26.9z"/>
											<path id="&lt;Path&gt;" class="s0" d="m1241 653h-7.3v-189.4h7.3z"/>
										</g>
									</g>
								</g>
								<g id="&lt;Group&gt;">
									<path id="&lt;Path&gt;" class="s10" d="m1322.1 579.9h-169.4v-146.3h169.4z"/>
									<g id="&lt;Group&gt;">
										<path id="&lt;Path&gt;" class="s9" d="m1191 546.5c-21.5-13.8-30.7-49.2-38.3-79v112.4h169.4v-19.5c-40.8 4.8-92.6 10.6-131.1-13.9z"/>
										<g id="&lt;Clip Group&gt;" clip-path="url(#cp10)">
											<path id="&lt;Path&gt;" class="s11" d="m1250.8 537.4h-26.9v-189.3h26.9z"/>
											<path id="&lt;Path&gt;" class="s0" d="m1241 511.9h-7.3v-189.3h7.3z"/>
										</g>
									</g>
								</g>
							</g>
						</g>
					</g>
				</g>
				<g id="&lt;Group&gt;">
					<g id="&lt;Group&gt;">
						<g id="&lt;Group&gt;">
							<path id="&lt;Path&gt;" class="s7" d="m516 753.4c0 7.1-61.4 12.9-137.2 12.9-75.7 0-137.2-5.8-137.2-12.9 0-7.2 61.5-13 137.2-13 75.8 0 137.2 5.8 137.2 13z"/>
							<g id="&lt;Group&gt;">
								<g id="&lt;Group&gt;">
									<g id="&lt;Group&gt;">
										<g id="&lt;Group&gt;">
											<g id="&lt;Group&gt;">
												<path id="&lt;Path&gt;" class="s12" d="m378.4 751.6q0 2.1-0.5 3.6c-3.2 10.5-20.1 4.6-27.2 2.3l-33-10.8c-4.5-1.5-13.6-2.8-16.2-7.6-1-2-1.1-4.4-0.8-6.8 0.5-3.3 1.8-6.7 2.5-9.3q0.1-0.3 0.2-0.6c2.7-10.5 6-20.7 9.7-30.9 0.3-1 1-1.7 1.7-2.1 1.3-0.8 3-0.7 4.5 0.3 0.7 0.4 1.2 1 1.4 1.6 0.7 1.4 0.5 3.2 0.3 4.8-0.2 3 0.4 5 3 6.7 1.5 0.9 3.1 1.5 4.6 2.4 2 1.4 3.2 3.3 5 4.9 1.1 1.1 2 2.4 3.3 3.3 2.2 1.4 2.4 0 4.3-1 0.9-0.5 2-0.6 3-0.5 2.1 0.3 4.1 1.8 4.5 3.9 0.7 4 1.8 7.1 3.3 9.5 4.7 7.9 12.9 9.5 21.1 16.3 2.9 2.4 5.4 5.8 5.3 10z"/>
												<path id="&lt;Path&gt;" class="s13" d="m352 725.3c-10.2 1.4-31.3 3.2-48.8-2.3q0.1-0.3 0.2-0.6c2.7-10.5 6-20.7 9.7-30.9 0.3-1 1-1.7 1.7-2.1l5.9 1.9c0.7 1.4 0.5 3.2 0.3 4.8-0.2 3 0.4 5 3 6.7 1.5 0.9 3.1 1.5 4.6 2.4 2 1.4 3.2 3.3 5 4.9 1.1 1.1 2 2.4 3.3 3.3 2.2 1.4 2.4 0 4.3-1 0.9-0.5 2-0.6 3-0.5 2.1 0.3 4.1 1.8 4.5 3.9 0.7 4 1.8 7.1 3.3 9.5z"/>
											</g>
											<path id="&lt;Path&gt;" class="s14" d="m377.9 755.2c-3.2 10.5-20.1 4.6-27.2 2.3l-33-10.8c-4.5-1.5-13.6-2.8-16.2-7.6-1-2-1.1-4.4-0.8-6.8 23.5 13.5 50.2 21.4 77.2 22.9z"/>
										</g>
										<g id="&lt;Group&gt;">
											<g id="&lt;Group&gt;">
												<path id="&lt;Path&gt;" class="s12" d="m483.3 746.9c-2.5 8.8-18.5 7.4-25.5 6.9l-34.6-2.3c-4.8-0.3-13.9 0.6-17.6-3.4-1.3-1.4-2-3.3-2.3-5.4-0.6-3.5-0.1-7.6-0.1-10.6q0.1-0.3 0.1-0.6c0-10.8 0.7-21.6 1.8-32.3 0.6-6 9.8-3.9 9.2 2.1-0.1 1.4-0.2 2.8-0.3 4.2 0.7 0.2 1.4 0.7 1.9 1.3 0.9 0.1 1.8 0.5 2.5 1.2 2.1-2.3 6.8-1.2 8 1.9 0.3 0.7 0.7 1.5 1 2.2 1.1-0.1 2.3 0.2 3.4 1.1 0.6 0.4 1.2 0.8 1.7 1.3 0.3 0.1 0.5 0.1 0.7 0.2 1.2 0.6 2.3 1.3 3.3 2-2.1-5.4 6.7-8.1 9.1-2.7q1.4 3.2 3 5.4c6.8 9.7 16.2 8.4 26.9 13.5 3.5 1.7 6.8 4.4 7.7 8.4 0.5 2.2 0.5 4.1 0.1 5.6z"/>
												<path id="&lt;Path&gt;" class="s13" d="m448.6 719.4c-7.1 6.7-21.2 15.3-45.4 12.7q0.1-0.3 0.1-0.6c0-10.8 0.7-21.6 1.8-32.3 0.6-6 9.8-3.9 9.2 2.1-0.1 1.4-0.2 2.8-0.3 4.2 0.7 0.2 1.4 0.7 1.9 1.3 0.9 0.1 1.8 0.5 2.5 1.2 2.1-2.3 6.8-1.2 8 1.9 0.3 0.7 0.7 1.5 1 2.2 1.1-0.1 2.3 0.2 3.4 1.1 0.6 0.4 1.2 0.8 1.7 1.3 0.3 0.1 0.5 0.1 0.7 0.2 1.2 0.6 2.3 1.3 3.3 2-2.1-5.4 6.7-8.1 9.1-2.7q1.4 3.2 3 5.4z"/>
											</g>
											<path id="&lt;Path&gt;" class="s14" d="m483.3 746.9c-2.5 8.8-18.5 7.4-25.5 6.9l-34.6-2.3c-4.8-0.3-13.9 0.6-17.6-3.4-1.3-1.4-2-3.3-2.3-5.4 26.4 4.4 53.3 5.8 80 4.2z"/>
										</g>
									</g>
									<g id="&lt;Group&gt;">
										<path id="&lt;Path&gt;" class="s15" d="m450.6 712.8c0 0.4-9.3 6.4-17.8 9.3-13.5 4.8-22.6 3.9-33.5-0.2-0.1 0-1.7-14.5-3.9-34.1-4.5-40.8-11.5-104-11.9-105.6-1.9-7.3-4-14.9-6.2-22.8-12.1-43-27.2-93.7-21.5-136.5 4.9 2 67.5 36 79.7 25.5 0.4 9.8 4.7 87.9 7.8 112.2 0.1 1.3 6.1 114.2 7.3 152.2z"/>
										<path id="&lt;Path&gt;" class="s13" d="m427.9 492.3c0 0-16.3 24.9-17.5 27.6-3.3 7.3-15.7 77.7-15 167.9-4.5-40.8-11.5-104-11.9-105.6-1.9-7.3-4-14.9-6.2-22.8l-4.2-49c10.8 4.2 54.8-18.1 54.8-18.1z"/>
									</g>
									<g id="&lt;Group&gt;">
										<path id="&lt;Path&gt;" class="s15" d="m435.5 448.4c-0.3 1.1-1 3-1.6 5.8-3.7 18.8-33.4 52.8-33.4 52.8 0 0-35.8 176.8-44.5 213.8-0.1 0.4-15.8 3.1-24.5 0.9-11.3-2.8-20.6-5.6-30.1-12.4-0.2-0.2 18.7-114.7 22.4-138.6 4.9-31.4 4.1-71.8 8.5-109.2 1.6-13.6 3.9-26.8 7.4-39 1.6-5.5 3.4-10.8 5.5-15.8 1.4 1.1 10.7 7.1 23 14.3 23.5 13.9 57.7 32 67.3 27.4z"/>
										<path id="&lt;Path&gt;" class="s13" d="m435.5 448.4c-0.3 1.1-0.8 3.1-1.6 5.8-14.6 6.4-42.8 15.9-76.2 13.7-10.5-0.7-18.8-3.1-25.4-6.4 1.6-13.6 3.9-26.8 7.4-39l28.5-1.5c23.5 13.9 57.7 32 67.3 27.4z"/>
									</g>
								</g>
								<g id="&lt;Group&gt;">
									<g id="&lt;Group&gt;">
										<g id="&lt;Group&gt;">
											<path id="&lt;Path&gt;" class="s16" d="m533.3 449.7c-1-3.2-6.1-5.7-15.3-13.9 2 0.4 5.2 2.8 5.4-1.5-0.4-1.8-7.7-6.9-12.7-9.8-0.2 0-0.8-0.2-1.6-0.5-1.1 1.6-2.9 2.7-5.3 3.1-5.1 0.8-9.7 3.1-14.6 4.7-3.6 1.1-7.2 1.9-10.9 2.7 2.8 3.2 9.1 12.4 18.2 18.5 2.9 2 7 3.6 13.2 5.7 18.1 6.1 25.6-2.5 23.6-9z"/>
										</g>
										<g id="&lt;Group&gt;">
											<path id="&lt;Path&gt;" class="s17" d="m510.7 420.4c-4.6 12.5-13.1 18.7-26 25.1-1-0.3-15.7-14.1-27.7-26.5-3.2-3.4-6.3-6.7-8.8-9.5-13.1-14.8-14.5-40.8-21-59.8-5.3-15.5-9.2-31.2-12-47.2q-1.6-9.1-2.7-18.2c-0.9-7.6 5.4-14.1 10.3-11.5 0 0.2 8.3 4.6 14.6 16.7 9.4 18.1 16.2 49.8 24.6 68.3 9.3 20.5 25.7 35.6 39.9 52.8 4.2 5 5.8 6.2 8.8 9.8z"/>
											<path id="&lt;Path&gt;" class="s13" d="m457 419c-3.2-3.4-6.3-6.7-8.8-9.5-13.1-14.8-14.5-40.8-21-59.8-5.3-15.5-9.2-31.2-12-47.2l2.4-1.9 16.6-0.9c0 0 12.9 39.3 12.9 58 0 13.3 1 39.4 9.9 61.3z"/>
										</g>
									</g>
									<g id="&lt;Group&gt;">
										<path id="&lt;Path&gt;" class="s17" d="m442 451.5c-3.9-0.2-87.8 29.3-105.6-10.6 0.3-1.4 10.2-87.3 23.6-140.3 4.2-16.5 8.7-29.8 13.3-36.4 7-9.9 14.8-17.2 21-18.8 0.4-1.3 4 14.9 22.3 22.5q0.1 0 0.2 0.1c12.8 5.2 13.8 18.4 17.4 31.7 5.7 21.2 7.1 41.5 7 50.6-0.2 10.3 0.1 45.8 0.4 71.9 0.2 16.4 0.4 29.1 0.4 29.3z"/>
										<path id="&lt;Path&gt;" class="s9" d="m442 451.5c-3.9-0.2-87.8 29.3-105.6-10.6 0.3-1.4 10.2-87.3 23.6-140.3l0.6 0.3 27.3 8.1c0 0-2 14.9-7.5 32.4-5.4 17.2-12.8 88.6 61.2 80.8 0.2 16.4 0.4 29.1 0.4 29.3z"/>
									</g>
									<g id="&lt;Group&gt;">
										<g id="&lt;Group&gt;">
											<g id="&lt;Group&gt;">
												<path id="&lt;Path&gt;" class="s16" d="m372.8 461c-3.2 2.8-3.7-1.1-4.8-2.9 0.5 12.4 2.3 17.8 0.7 20.7-3.2 6-14.7 6.6-23-10.6-2.8-5.8-4.5-9.9-5.1-13.4q-0.6-3-0.7-5.9c-0.7-10.7 1.8-20.4 1.2-21.7 0-0.1-0.1-1.1 0-1.6 2.4 0.8 10.6 6.6 13 7.5 2.2 2 6.7 2.6 10.9 3.1-0.1-0.5-1.8-7.7-0.8-6.3 0 0.1 0-1.6 0-1.6 0.4 0.5 2.6 6.4 4.4 11.1 1.1 2.9 2.1 5.3 2.3 5.6 1.5 5.6 2.9 14.4 1.9 16z"/>
											</g>
											<path id="&lt;Path&gt;" class="s13" d="m368.6 439.4q-0.8 0.6-1.8 1.1c-8.5 4.4-17.5 7.4-26.9 8.4-0.7-10.7 1.8-20.4 1.2-21.7 0-0.1-0.1-1.1 0-1.6 2.4 0.8 10.6 6.6 13 7.5 2.2 2 6.7 2.6 10.9 3.1-0.1-0.5-1.8-7.7-0.8-6.3 0 0.1 0-1.6 0-1.6 0.4 0.5 2.6 6.4 4.4 11.1z"/>
										</g>
										<path id="&lt;Path&gt;" class="s17" d="m334.4 439c0 0.6 0.1 1.1 0.2 1.6 13.5 1 26.2-0.8 38.5-4.6 0.9-5-0.2-11.1-0.7-17.4-1.9-22-4.7-44.5-0.7-66.4 3.6-19.8 17.6-36.7 18.9-56.9 0.7-10.9-2.2-21.4-13.1-27.6-4.8-2.8-16.4 4.2-20.3 10.1-10.6 15.9-14.5 33-19.8 51.5-5.4 19.1-8.5 37.7-6.2 57.1 2.1 17.8 3.1 37.6 3.2 52.6z"/>
									</g>
								</g>
								<g id="&lt;Group&gt;">
									<g id="&lt;Group&gt;">
										<path id="&lt;Path&gt;" class="s16" d="m435.7 232.2c0 0-0.3 0.6-0.8 1.9-1.9 5-7 19.4-10.9 41.7q-0.3 1.9-0.7 4c-3.8 23.9-42.9-13.3-42.9-13.3 0 0 9.8-13.5 12.8-22 0.3-1.1 0.7-2.4 1.2-3.9 1-3.5 2.1-8 3.3-12.8 3.2-13.2 6.4-28.2 6.4-28.2z"/>
										<path id="&lt;Path&gt;" class="s13" d="m434.9 234.1c-1.9 5-7 19.4-10.9 41.7-5.5-2.8-10.6-6.4-15-10.7-6.8-6.8-11.8-15.3-14.6-24.5 1-3.5 2.1-8 3.3-12.8q18.7 2.7 37.2 6.3z"/>
									</g>
									<g id="&lt;Group&gt;">
										<g id="&lt;Group&gt;">
											<g id="&lt;Group&gt;">
												<path id="&lt;Path&gt;" class="s16" d="m493.5 178.2c0.4 4.5-4 20.6-10.6 33 0 0-2.4 52.7-53 57.3 0 0-35.7-12.1-37.8-55.9 0 0-10.2-2.4-8.2-15.6 2.2-14.3 14.5-6.1 14.5-6.1 0 0-4.3-56.6 41.8-46.2 46 10.4 52.2 20.4 53.3 33.5z"/>
												<path id="&lt;Path&gt;" class="s13" d="m400.8 197.4c26.3 1.1 53.3-9.6 73.2-27.5 6.1 7.5 11.9 17.3 14.7 26.4 0-8.7-1.1-19.8-3.9-28-1-3-2.3-6.1-4.8-8.1-2.2-1.9-5.2-2.6-8.1-2.7-2.9 0-5.8 0.6-8.6 1.3-11.2 2.6-22.3 5.9-32.5 11.1-10.2 5.2-19.6 12.4-26.1 21.9"/>
											</g>
											<g id="&lt;Group&gt;">
												<g id="&lt;Group&gt;">
													<path id="&lt;Path&gt;" class="s18" d="m450.4 227.8q0.2 0.1 0.5 0c2.1-1.1 4-4.5 3.6-9-0.1-0.4-0.4-0.6-0.7-0.6-0.4 0.1-0.6 0.4-0.6 0.7 0.4 3.9-1.2 6.9-2.9 7.7-0.3 0.2-0.4 0.6-0.3 0.9q0.1 0.2 0.4 0.3z"/>
												</g>
												<g id="&lt;Group&gt;">
													<g id="&lt;Group&gt;">
														<path id="&lt;Path&gt;" class="s19" d="m435.9 209.8c-1 2.9-0.5 5.8 1.2 6.4 1.7 0.6 4-1.2 5-4.1 1.1-2.9 0.5-5.8-1.2-6.4-1.7-0.6-3.9 1.2-5 4.1z"/>
														<path id="&lt;Path&gt;" class="s19" d="m445.4 199.5c0 0-4.4-10.5-11.6-2.1 0 0 5.8-3.7 11.6 2.1z"/>
													</g>
													<g id="&lt;Group&gt;">
														<path id="&lt;Path&gt;" class="s19" d="m475.7 220.4c-1 2.9-3.2 4.7-5 4.1-1.7-0.6-2.2-3.5-1.2-6.4 1.1-2.9 3.3-4.7 5-4.1 1.7 0.6 2.3 3.5 1.2 6.4z"/>
														<path id="&lt;Path&gt;" class="s19" d="m470.4 206.6c0 0 8.9-7.1 11.2 3.7 0 0-3.4-6-11.2-3.7z"/>
													</g>
												</g>
												<path id="&lt;Path&gt;" class="s19" d="m431.2 233.4c4.5 5.8 11 8.9 18.3 8.9 1.7 0 1.5 2.6-0.3 2.6-7.9 0-15.1-3.5-20-9.7-1-1.4 1-3.1 2-1.8z"/>
											</g>
										</g>
										<g id="&lt;Group&gt;">
											<path id="&lt;Path&gt;" class="s20" d="m495.5 180.3q-0.2 1.3-0.4 2.5-0.2 0.9-0.5 1.8c-1.1 4.9-3.2 9.5-6 13.6q-0.3-6.5-2.4-12.8c-2.3-7.5-6.4-14.7-11.9-21.7-5.1 6.6-14.1 13-24.6 18.5-17.5 9.3-38.8 16-51 16.6 0 0-0.7-9.7-7-10-6.8-0.3-8.1 11.9-8.1 11.9-7.5-15.6-7.1-36.8 2.9-53.4 2.7-4.6 6.2-8.9 10.4-12.6 9.5-8.3 22.9-13.6 40.5-13.6 29.4 0 62.2 28 58.1 59.2z"/>
											<path id="&lt;Path&gt;" class="s21" d="m495.5 180.3c-1-4.3-2.2-8.5-4-12.6-8.4-19.4-27.8-32.8-48.5-36.8-15.3-3-31.2-1.2-46.1 3.8 9.5-8.3 22.9-13.6 40.5-13.6 29.4 0 62.2 28 58.1 59.2z"/>
										</g>
									</g>
									<g id="&lt;Group&gt;">
										<path id="&lt;Path&gt;" class="s20" d="m403.6 333c-2.4-28.8-14.2-34.2-29.7-52.5-24.2-28.7 10.7-62.3 10.7-62.3-1.5-5.4 4.1-7.2 4.1-7.2l3.2 1.5 0.2 0.1c0.5 6.2 4.2 21.3 4.2 21.3l-1.9 6.7c0 0 2.9 14.5 18 42.1 15.5 28-8.8 50.3-8.8 50.3z"/>
										<path id="&lt;Path&gt;" class="s13" d="m396.3 233.9l-1.9 6.7c0 0-5.6-16.5-2.5-28.1l0.2 0.1c0.5 6.2 4.2 21.3 4.2 21.3z"/>
									</g>
								</g>
							</g>
						</g>
						<g id="&lt;Group&gt;">
							<path id="&lt;Path&gt;" class="s7" d="m626.2 753.4c0 5.1-29.6 9.2-66.2 9.2-36.5 0-66.1-4.1-66.1-9.2 0-5.2 29.6-9.3 66.1-9.3 36.6 0 66.2 4.1 66.2 9.3z"/>
							<g id="&lt;Group&gt;">
								<path id="&lt;Path&gt;" class="s22" d="m571.4 412.4c-0.4 0-0.7 0.2-1 0.3-0.2 0.1-0.5 0.1-0.8 0.2-7.7 4.1-9 20.5-6.8 28.9 6.5 24.7 3.5 47.5 5.7 47 13.7-2.9 25-20.9 25-37.4 0-14.4-4.2-41.8-22.1-39z"/>
								<g id="&lt;Group&gt;">
									<path id="&lt;Path&gt;" class="s23" d="m569.9 596.3c-0.9-10.6-9.5-60.8-9.2-62-2-19.4 2.8-18.1 5.6-16.8 1.9 0.8 3.5 1.9 4.8 3.2 3.2-4.2 4.7-25.3 8.4-19.8 6.3 9.5 8.5 40.4 9.1 51.5 0.7 13.6 0.5 52.8-4.3 51.7-4.8 2-13.8-1.3-14.4-7.8z"/>
									<path id="&lt;Path&gt;" class="s24" d="m570 462.7c-3.2-0.4-6.2-0.7-8.4 1.6-16.8 18.2-15.2 46.7-12.7 67.6 9.2 12.6 42.2-4.5 42.2-4.5 0 0-1.7-12.3-5.1-30.3-0.9-5.4-5.4-33-16-34.4z"/>
								</g>
								<g id="&lt;Group&gt;">
									<g id="&lt;Group&gt;">
										<g id="&lt;Group&gt;">
											<path id="&lt;Path&gt;" class="s25" d="m589.9 749c-2.8 2.1-6.3 1.3-9.4 0.2-0.8-0.3-1.6-0.6-2.4-0.9-5.6-2.1-11.4-3.7-17.1-5.6-5.8-1.9-11.7-3.9-15.9-8.6-0.6-0.7-0.9-1.9-1.5-2.6-0.6-0.6 0.8-27.5 1.5-54 0.3-8.6 0.5-17.1 0.5-24.7 12.3 2.6 22.4 5 34.8 7.1q-1 6.5-2.1 13c-3.3 18.6-7.2 36.9-11.4 55.3 8.6 6 15.6 10.1 21.6 12.2 2.6 1 3.7 6.9 1.4 8.6z"/>
											<path id="&lt;Path&gt;" class="s13" d="m580.4 659.9q-1 6.5-2.1 13c-10.8 3-22 4.5-33.2 4.6 0.3-8.6 0.5-17.1 0.5-24.7 12.3 2.6 22.4 5 34.8 7.1z"/>
										</g>
										<path id="&lt;Path&gt;" class="s26" d="m588.5 738.3c0.6-0.1 13.8 10.9 11.2 13.3-3 2.7-59.8 2.3-61.5-1.3-1.7-3.5 1.2-13.8 5.1-21 3.3 7.6 27.3 14.5 45.2 9z"/>
									</g>
									<g id="&lt;Group&gt;">
										<g id="&lt;Group&gt;">
											<path id="&lt;Path&gt;" class="s16" d="m566 750.1c-2.8 2.1-6.3 1.2-9.4 0.1-0.8-0.3-1.6-0.6-2.4-0.9-5.6-2.1-11.4-3.7-17.1-5.6-5.8-1.9-11.7-3.9-15.9-8.5-0.6-0.8-0.9-2-1.5-2.6-0.6-0.6 0.8-27.5 1.5-54.1 0.3-8.5 0.5-17.1 0.5-24.7 12.3 2.6 22.4 5 34.8 7.1q-1 6.6-2.1 13c-3.3 18.6-7.2 36.9-11.4 55.4 8.6 5.9 15.6 10 21.6 12.2 2.6 0.9 3.7 6.8 1.4 8.6z"/>
											<path id="&lt;Path&gt;" class="s13" d="m556.5 660.9q-1 6.6-2.1 13c-10.8 3-22 4.6-33.2 4.6 0.3-8.5 0.5-17.1 0.5-24.7 12.3 2.6 22.4 5 34.8 7.1z"/>
										</g>
										<path id="&lt;Path&gt;" class="s15" d="m564.6 739.4c0.6-0.2 13.8 10.8 11.2 13.2-3 2.8-59.8 2.3-61.5-1.2-1.7-3.5 1.2-13.8 5.1-21.1 3.3 7.7 27.3 14.6 45.2 9.1z"/>
									</g>
								</g>
								<g id="&lt;Group&gt;">
									<path id="&lt;Path&gt;" class="s27" d="m589.4 663.7c0 0-19.3 6.6-34.2 6.5-18.6 1.7-51.1-2.4-51.1-2.4 0 0 3.1-34.1 7.3-74.4q0.4-4 0.8-7.6c4.3-36.3 8.9-48.4 10.1-50.1 0 0 4.1-1.7 9.9-4 13.8-5.6 37.4-14.9 38.3-14.1 0.8 0.7-1.2 4.7-3.8 15.6l15 0.4c0 0 0.3 1.6 0.6 4.6 0.6 6.6 1.8 19.6 1.8 34.4 0 3.4 0 6.9 0.1 10.5 0.8 37.2 5.2 80.6 5.2 80.6z"/>
									<path id="&lt;Path&gt;" class="s13" d="m584.2 583.1c-12.1 4-35.9 8.8-72 2.7 4.3-36.3 8.9-48.4 10.1-50.1 0 0 4.1-1.7 9.9-4l50.1 6.5c0.6 6.6 1.8 19.6 1.8 34.4 0 3.4 0 6.9 0.1 10.5z"/>
								</g>
								<g id="&lt;Group&gt;">
									<path id="&lt;Path&gt;" class="s23" d="m572 476.7c-0.9 1.1-0.9-0.5-2.3-1.4-1-0.7-2-1.2-2.9-1.8q-0.8-0.2-1.5-0.4c0.8 2.3-1.6 5.1-4.4 3.7-1-0.6-2.4-1.4-3.9-2.4q0 0-0.1 0c-0.8 0.3-1.7 0.6-2.6 0.9-0.7 0.9-1.9 1.4-2.9 1.1q-1 0.4-2 0.8-0.5 0.9-1 1.5c-0.7 0.8-2 1.1-3 0.8-0.7-0.2-1.4-0.6-1.9-1.1-0.1 0.1-0.2 0.2-0.3 0.4q-0.3 0.4-0.5 0.8c-0.9 1.8-5.8 0-7.2-0.9 1.3-8.6 4.1-16.3 5.6-24.5 1-5.4 1.4-11 0.5-17.2 0.6 0.1 3.2 0.8 3.7 1.1 0.7 0.1 1.4 0.4 1.9 1 1.5-0.9 3.7-0.8 4.5 1.3q0.2 0.4 0.4 0.9c1-1 2.7-1.1 4-0.1 0.7-1.1 2.1-1.5 3.4-1.2 1.3-0.4 11.3-1.6 3.3 1.8 1.6 6.3 5.7 6 5.5 18.3 0.1 0.1 0.6 2.7 1.3 6 0.7 3.9 1.7 8.7 2.4 10.6z"/>
									<path id="&lt;Path&gt;" class="s13" d="m541.1 454.2c1-5.4 1.4-11 0.5-17.2 0.6 0.1 3.2 0.8 3.7 1.1 0.7 0.1 1.4 0.4 1.9 1 1.5-0.9 3.7-0.8 4.5 1.3q0.2 0.4 0.4 0.9c1-1 2.7-1.1 4-0.1 0.7-1.1 2.1-1.5 3.4-1.2 1.3-0.4 11.3-1.6 3.3 1.8 1.6 6.3 5.7 6 5.5 18.3 0.1 0.1 0.6 2.7 1.3 6-10.4-1.3-20.4-5.4-28.5-11.9z"/>
								</g>
								<g id="&lt;Group&gt;">
									<path id="&lt;Path&gt;" class="s28" d="m586 579.2c-26.3 7.2-62.5 1.9-74.8-4.3-0.6-32.3 1.9-55.8 5.8-72.8 8.6-38.2 23.6-44.2 23.8-43.7 4.9 11.7 28.9 16.9 29.1 9.2 8.9 29.7 12.2 58.4 14 82.5 0.9 10.7 1.4 20.5 2.1 29.1z"/>
									<path id="&lt;Path&gt;" class="s29" d="m586 579.2c-26.3 7.2-62.5 1.9-74.8-4.3-0.6-32.3 1.9-55.8 5.8-72.8 0.6 5 1.6 9.7 3 14 5.5 17.3 16.9 34 34.7 37.5 9.2 1.9 18.9 0.3 27.7-2.9q0.8-0.3 1.5-0.6c0.9 10.7 1.4 20.5 2.1 29.1z"/>
								</g>
								<g id="&lt;Group&gt;">
									<path id="&lt;Path&gt;" class="s23" d="m550.4 605.9c-4 2.5-18.4-33.3-21.8-45.9-0.9-3.2-1.9-8.2-2.8-13.9-1.6-9.6-2.9-21.2-2.4-29.2 0.1-2.4 0.4-4.5 0.9-6.1 0.9-3.2 3.5 0.6 6.3 5.3 2.5 4.1 5.2 8.8 7.1 10.2 0.9-1.6 2-3 3.4-4.4 2.2-2 6.2-4.6 10.2 13.7 0.1 0.1 0.3 1.5 0.7 3.7 2 11.6 7.3 47 9.2 55.3 1.4 6.1-5.8 11.7-10.8 11.3z"/>
									<path id="&lt;Path&gt;" class="s13" d="m552 539.3c-8.4 3.5-17.2 5.8-26.2 6.8-1.6-9.6-2.9-21.2-2.4-29.2q3.6-0.4 7.2-0.8c2.5 4.1 5.2 8.8 7.1 10.2 0.9-1.6 2-3 3.4-4.4 2.2-2 6.2-4.6 10.2 13.7 0.1 0.1 0.3 1.5 0.7 3.7z"/>
									<path id="&lt;Path&gt;" class="s16" d="m564.2 625.5c-0.9-1.2-2.1-11.2-1.7-14.9 2.1 2.8 1.2 5.2 3.8 7.5 1.5 1.3 2.6-0.6 2.6-2.1-0.1-6.7-0.4-9.9-4.2-17.4-0.9-1.8-4.1-5.1-5.2-7q-4.3 1.4-8.6 2.9-3.1 1.4-6.3 2.7c0.7 3 1.2 5 1.5 5.7-1 4.2-2.2 8.7-2 12.8 0.2 2.2 3.7 11.1 5.4 13.4 0.9 1.2 2.1 2.3 3.7 2q0.9-0.1 1.4-0.7 0 0 0.1 0.1c1.2 0.8 3.2 0.6 4-0.6 0.8 0.2 1.5 0.1 2.2-0.4q0 0 0 0c0.6-0.3 1-0.8 1.1-1.4q0.1 0.1 0.3 0.2 0 0 0.1 0c1.3 0.4 2.9-1.3 1.8-2.8z"/>
									<path id="&lt;Path&gt;" class="s24" d="m545.1 469.7q-1.1-0.4-2.3-0.6c-11-1.3-16.4 13.6-18.9 21.8-2.8 9.6-3.7 19.7-3.9 29.7-0.1 4.9 0 9.8 0.2 14.7 11 4.6 39.1-0.1 39.1-0.1-0.1 0-2.1-20.3-2.2-21.6-0.5-8.6-0.8-17.3-2.3-25.8-1.1-6.4-2.6-15.5-9.7-18.1z"/>
								</g>
								<g id="&lt;Group&gt;">
									<path id="&lt;Path&gt;" class="s22" d="m588.3 433.4c-9.3 0.2-11 8.3-20.4 9.4-5.7 0.7-11.4 1.2-17.1 1.6-0.3 1.6-1.5 4.4-4.2 5.3-16.7 5.4-28.6-13.6-35.8-24.6-1.3-2-15.2-39.9 2.6-62q2.3-2.9 5.5-5.4c22.7-18.1 41.7-6.6 41.7-6.6 0 0 16.1-0.8 25.4 11.2 4.7 6 7.5 11.4 9.1 16.4q0 0 0 0c7.2 22.3-10.2 36.3-6.8 54.7z"/>
									<g id="&lt;Group&gt;">
										<g id="&lt;Group&gt;">
											<path id="&lt;Path&gt;" class="s23" d="m569.6 456.9c-11.2 3.4-28.1 3-42.4-19.6 0 0-8.4 1.4-11-9.2-2.2-8.9 4.3-9.4 7.4-9.2 0.8 0 1.4 0.1 1.5 0.1-0.1-0.2-0.6-1.3-1.4-3.1-1.4-3.7-3.7-10.1-5.1-17.3 4-13.1 12.7-23.9 25.7-29 6.3-2.4 13.2-3.3 19.9-2.7 6.4 0.6 11.2 3.1 16 6.4q1.2 1.5 2.7 3.4 0.1 0 0.1 0.1 1.5 1.9 3.3 4.3c2.4 3.7 4 8.5 4.6 12.3 0.2 1.5 0.2 2.7 0.2 3.7 0 0 17.7 47.7-21.5 59.8z"/>
											<g id="&lt;Group&gt;">
												<g id="&lt;Group&gt;">
													<path id="&lt;Path&gt;" class="s30" d="m571.9 423.4q0.2 0 0.3-0.2c1.1-1.6 1.2-4.9-0.9-8-0.2-0.3-0.5-0.3-0.8-0.2-0.2 0.2-0.3 0.5-0.1 0.8 1.8 2.7 1.8 5.5 0.9 6.8-0.1 0.2-0.1 0.5 0.2 0.7q0.2 0.1 0.4 0.1z"/>
												</g>
												<g id="&lt;Group&gt;">
													<g id="&lt;Group&gt;">
														<path id="&lt;Path&gt;" class="s19" d="m549.4 413.8c0.4 2.5 1.9 4.3 3.4 4.1 1.5-0.2 2.4-2.5 2-5-0.4-2.5-1.9-4.4-3.4-4.1-1.5 0.2-2.4 2.4-2 5z"/>
														<path id="&lt;Path&gt;" class="s19" d="m555.9 403.4c0 0-6.1-7.3-9.7 1.2 0 0 3.7-4.4 9.7-1.2z"/>
													</g>
													<g id="&lt;Group&gt;">
														<path id="&lt;Path&gt;" class="s19" d="m587.4 407.8c0.4 2.5-0.5 4.8-2 5-1.5 0.2-3-1.6-3.4-4.1-0.4-2.6 0.5-4.8 2-5 1.5-0.3 3 1.6 3.4 4.1z"/>
														<path id="&lt;Path&gt;" class="s19" d="m578 399.9c0 0 3.6-8.8 9.6-1.8 0 0-4.8-3-9.6 1.8z"/>
													</g>
												</g>
												<g id="&lt;Group&gt;">
													<path id="&lt;Path&gt;" class="s31" d="m583.6 427.7c-1.1 0.2-24.5 4.5-24.5 4.5 0 0 3.4 12 14.3 10.3 10.8-1.7 10.2-14.8 10.2-14.8z"/>
													<g id="&lt;Clip Group&gt;" clip-path="url(#cp11)">
														<path id="&lt;Path&gt;" class="s0" d="m559.6 431.2c0.3 1.9 5.9 2.6 12.7 1.5 6.7-1 11.9-3.4 11.6-5.3-0.3-1.9-6-2.6-12.7-1.5-6.7 1-11.9 3.4-11.6 5.3z"/>
														<path id="&lt;Path&gt;" class="s32" d="m582.5 440.9c-0.5-2.9-5-4.6-10.1-3.8-5.2 0.8-9 3.8-8.5 6.8 0.5 2.9 5 4.6 10.1 3.8 5.2-0.8 8.9-3.8 8.5-6.8z"/>
													</g>
												</g>
											</g>
										</g>
										<path id="&lt;Path&gt;" class="s13" d="m590.9 393.4c-8.1-0.7-16.6-4.2-22.2-9.9-6.9 11.3-19.4 17.8-32.1 22.1-3.1 7-7.7 13-13.7 17.7l0.6-3.2q0.1-0.6 0.1-1.2 0-1.5 0.1-3c0.5-9.3 1.6-18.8 6.5-26.5 3.6-5.7 9-10 14.8-13.4 4.5-2.6 9.5-4.7 14.6-5.6 5.2-0.9 10.7-0.6 15.6 1.3 2.9 1.2 5.5 2.9 7.7 5q0.1 0 0.1 0.1 1.5 1.9 3.3 4.3c2.4 3.7 4 8.5 4.6 12.3z"/>
									</g>
									<path id="&lt;Path&gt;" class="s22" d="m567.1 362.3c-10.2-5.5-21-4.2-31.3 0.5-23.1 10.5-24.5 36.1-22.7 58.2q1.8 5.9 3.4 12 0.1-0.1 0.2-0.1c12.7-13.1 16.6-28.5 18.8-29.3 22.8-8.3 32.2-27.3 32.2-27.3 0 0 15.1 15.1 26.4 17.8-4.9-13.7-14-24.7-27-31.8z"/>
									<path id="&lt;Path&gt;" class="s22" d="m510.8 418.4c-0.4 0-0.7 0.2-1.1 0.3-0.2 0-0.5 0-0.8 0.1-8.2 2.9-9.2 19.3-8.1 27.9 3 25.4-5.7 47.2-3.5 47 13.9-1 28.4-20.3 30-33.5 1.5-12.3 1.5-42.1-16.5-41.8z"/>
									<path id="&lt;Path&gt;" class="s28" d="m522.2 422.2c-2.2-5.3-7.8-8.4-13.5-6.9-2.1 0.5-1.2 3.7 0.9 3.2 3.7-1 7.9 1 9.4 4.6 0.8 1.9 4 1.1 3.2-0.9z"/>
									<path id="&lt;Path&gt;" class="s21" d="m595.1 378.7c-2.5-4.7-5.4-9-9.1-12.7-7.2-7.3-17.9-12.4-27.8-9.7-9.5-3.6-20.2-4-29.9-1-5.4 1.7-10.5 4.3-14.9 7.8q2.3-2.9 5.5-5.4c22.7-18.1 41.7-6.6 41.7-6.6 0 0 16.1-0.8 25.4 11.2 4.7 6 7.5 11.4 9.1 16.4z"/>
								</g>
							</g>
						</g>
					</g>
					<g id="&lt;Group&gt;">
						<path id="&lt;Path&gt;" class="s7" d="m1214.2 754.2c0 7.3-63.3 13.3-141.5 13.3-78.1 0-141.5-6-141.5-13.3 0-7.3 63.4-13.2 141.5-13.2 78.2 0 141.5 5.9 141.5 13.2z"/>
						<g id="&lt;Group&gt;">
							<g id="&lt;Group&gt;">
								<g id="&lt;Group&gt;">
									<path id="&lt;Path&gt;" class="s16" d="m1032.5 360.9c-0.1 1.2-0.7 8.8-3.5 17.3-0.7 2.3-2.2 4.2-4.1 5.6-13.2 10-29.1 20.7-43.7 29.9-10.7 6.8-20.7 12.9-28.3 17.4-8.7 5.2-14.4 8.4-14.4 8.4-11.3 4.5-27.6 7.9-33.7 7.1-7-0.9-13.7-8.6-14.5-9.8 0-0.1 0-0.1 0-0.2-1-1.3-1.8-2.8-2.1-4.3q-0.2-0.2-0.4-0.3c-0.8-0.7-0.4-2.4 0.7-2.5 0.4-0.3 0.9-0.4 1.4-0.3 0.2 0 0.3 0.1 0.5 0.2 0.3 0 0.6-0.1 0.8-0.1 0.3-0.2 0.7-0.3 1-0.3 0.3-0.2 0.6-0.3 0.8-0.4 0.6 0 2.1-0.3 4.1-0.7q10.3-3.5 19.6-8.9-0.4-0.4-0.7-0.8c-3.9-0.4-8.8-0.6-8.1-5.5 0.1-0.9 0.8-1.3 1.5-1.5q0 0 0 0c8-5.3 15.9 0.5 24 2.2q4-3.2 8-6.4c6.5-5.1 13-10.2 19.2-15.2 12.1-9.8 23-18.9 29.7-25.5 0.9-0.3 1.8-0.8 2.6-1.7 7.8-8.7 14.5-19.2 18-30.5l5.2-5.7c1.4 0.8 2.6 2.2 2.7 4q0 0.1 0 0.2c1.3-1.9 4.2-1.8 6.2-0.4 1.3 0.2 2.5 1 3.2 2.2 1 0.7 1.8 1.8 2 3.4 0.7 0.5 1.1 1.3 1.3 2.4q0.1 0.6 0.1 1.2 0.3 1.9 0.5 3.9c0.7 5.2 0.9 10.3 0.4 15.6z"/>
									<path id="&lt;Path&gt;" class="s13" d="m981.2 413.7c-10.7 6.8-20.7 12.9-28.3 17.4-3.5-5.1-6.4-10.5-8.9-16.2-0.5-1.3-1.5-4.2-2.6-7.9 6.5-5.1 13-10.2 19.2-15.2q1.8 2 3.7 4 8.5 8.9 16.9 17.9z"/>
								</g>
								<path id="&lt;Path&gt;" class="s28" d="m964 429.3c18.9-10.7 85.5-77.3 92.5-81.6 8.3-5-0.3-17.5-8.6-12.4-4.7 2.9-9.7 5-14.7 6.3-0.5-1.7-1.6-3.3-3.6-4.3q0.4-0.7 0.8-1.3c4.6 1.2 10.1-1.4 9.4-7.5q-1.6-15.2-3.3-30.4-0.1-1.7-0.2-3.4c2.5-2.5 4.6-5.2 6.5-8.2 1.7-2.9-0.3-5.4-2.8-6.1q2-5.9 3.9-11.9c0.3-0.8 0.3-1.6 0-2.3q0.3-0.1 0.6-0.2c5.5-1.3 2.8-8.5-1.8-8.8-8.9-0.5-14.4 4.7-19 12.4-5.9 9.9-8.7 46-17.3 66.2-3.2 7.5-57.4 60.6-63.3 66.9 5 8.2 14.4 20 20.9 26.6z"/>
							</g>
							<g id="&lt;Group&gt;">
								<g id="&lt;Group&gt;">
									<g id="&lt;Group&gt;">
										<g id="&lt;Group&gt;">
											<path id="&lt;Path&gt;" class="s12" d="m1072.2 708.7q-0.1 1-0.1 2.1c-0.2 9.2-0.7 18.5-1.7 27.7-0.1 1.1-0.2 2.2-0.3 3.3-0.3 2.2-0.3 5.1-0.7 7.9-0.5 3.4-1.4 6.8-3.7 8.7-4.3 3.6-13.4 1.6-18.3 1.3l-35.5-1.8c-7.6-0.4-25.5-1-25.2-11.8 0-1.2 0.3-2.6 0.9-4.1 1.4-3.9 5-6.3 8.8-7.6 11.2-3.8 20.3-1.6 28.2-9.5 1.6-1.6 3.1-3.6 4.6-6.1 3.1-5.2 11.7-1.3 8.9 3.9 1.1-0.6 2.3-1.1 3.5-1.6 0.3-0.1 0.5-0.1 0.8-0.2 0.6-0.4 1.2-0.7 1.9-1.1 1.2-0.8 2.5-0.9 3.6-0.7 0.4-0.7 0.8-1.4 1.2-2.1 1.7-3 6.6-3.5 8.5-1 0.8-0.6 1.7-0.8 2.7-0.8 0.6-0.6 1.3-1 2.1-1.2 0-1.4 0.1-2.9 0.1-4.3q0-0.5 0.1-1c1.1-5.3 9.7-5.9 9.6 0z"/>
											<path id="&lt;Path&gt;" class="s13" d="m1072.1 710.8c-0.2 9.2-0.7 18.5-1.7 27.7-16-0.9-31.8-5.6-45.8-13.6 1.6-1.6 3.1-3.6 4.6-6.1 3.1-5.2 11.7-1.3 8.9 3.9 1.1-0.6 2.3-1.1 3.5-1.6 0.3-0.1 0.5-0.1 0.8-0.2 0.6-0.4 1.2-0.7 1.9-1.1 1.2-0.8 2.5-0.9 3.6-0.7 0.4-0.7 0.8-1.4 1.2-2.1 1.7-3 6.6-3.5 8.5-1 0.8-0.6 1.7-0.8 2.7-0.8 0.6-0.6 1.3-1 2.1-1.2 0-1.4 0.1-2.9 0.1-4.3q0-0.5 0.1-1 4.8 1.1 9.5 2.1z"/>
										</g>
										<path id="&lt;Path&gt;" class="s14" d="m1069.4 749.7c-0.5 3.4-1.4 6.8-3.7 8.7-4.3 3.6-13.4 1.6-18.3 1.3l-35.5-1.8c-7.6-0.4-25.5-1-25.2-11.8 27.1 6.1 55.2 7.3 82.7 3.6z"/>
									</g>
									<g id="&lt;Group&gt;">
										<path id="&lt;Path&gt;" class="s33" d="m1132.4 502c-9.8 31.5-23.6 62.5-33.5 88.9-0.7 1.9-7 61.8-17.9 106.3-2.7 11-5.6 21-8.8 29.1-0.3 0.1 0.3 0.5 0.1 0.6-17.4 4.3-52.9-6.9-52.9-7.4 5.4-38.6 9.8-156.8 10.1-158 5.8-24.5 17.3-107.5 18.8-117.5 11.3 12.1 90.9-11 96.1-12.4 0.6 22.6-4.6 46.6-12 70.4z"/>
										<path id="&lt;Path&gt;" class="s13" d="m1132.4 502c-9.8 31.5-23.6 62.5-33.5 88.9-0.7 1.9-7 61.8-17.9 106.3-4.8-40.3-12.7-80.8-14.3-121.3q-1.3-32.9-2.5-65.8c-0.5-12.8-1.7-27-11.4-35.3 25.2 1.7 51.7 2.9 76.2 9.3 0.8 5.9 2 11.9 3.4 17.9z"/>
									</g>
								</g>
								<g id="&lt;Group&gt;">
									<g id="&lt;Group&gt;">
										<path id="&lt;Path&gt;" class="s12" d="m1161.5 748.5c-3.2 4.6-12.5 4.9-17.3 5.8l-34.9 7.2c-7.6 1.6-25.9 5.7-27.5-6q-0.1-1.5 0-3.2c0.4-4.2 3.3-7.4 6.6-9.6 10.2-6.6 19.8-6.7 25.4-17.1 0.9-1.7 1.8-3.8 2.5-6.2 1.6-5.9 12.8-10.7 11.4-4.9 0.9-0.8 0.1 4.7 1.2 3.9 0.2-0.1 0.4-0.2 0.7-0.3 0.5-0.6 1-1.1 1.5-1.6 1-1.1 2.2-1.5 3.3-1.6q0.4-1.2 0.7-2.4c0.8-3.2 5.4-5 7.9-3 0.6-0.8 1.5-1.3 2.4-1.5 0.4-0.7 1.1-1.3 1.8-1.7-0.4-1.4-0.6-2.8-1-4.2-1.4-6 7.7-9.4 9.1-3.4 2.1 8.9 4 17.7 5.4 26.7 0.4 2 0.6 3.9 0.9 5.9 0.3 2 0.9 4.6 1.3 7.3 0.4 3.6 0.5 7.3-1.4 9.9z"/>
										<path id="&lt;Path&gt;" class="s14" d="m1161.5 748.5c-3.2 4.6-12.5 4.9-17.3 5.8l-34.9 7.2c-7.6 1.6-25.9 5.7-27.5-6 27.8-0.8 55.3-6.6 81.1-16.9 0.4 3.6 0.5 7.3-1.4 9.9z"/>
										<path id="&lt;Path&gt;" class="s13" d="m1160.7 725.4q-3.4 0.7-6.9 1.1c-12.6 1.7-26.9 2.3-39.4-0.7q-0.3-0.1-0.6-0.2c0.9-1.7 1.8-3.8 2.5-6.2 1.6-5.9 12.8-10.7 11.4-4.9 0.9-0.8 0.1 4.7 1.2 3.9 0.2-0.1 0.4-0.2 0.7-0.3 0.5-0.6 1-1.1 1.5-1.6 1-1.1 2.2-1.5 3.3-1.6q0.4-1.2 0.7-2.4c0.8-3.2 5.4-5 7.9-3 0.6-0.8 1.5-1.3 2.4-1.5 0.4-0.7 1.1-1.3 1.8-1.7-0.4-1.4-0.6-2.8-1-4.2-1.4-6 7.7-9.4 9.1-3.4 2.1 8.9 4 17.7 5.4 26.7z"/>
									</g>
									<g id="&lt;Group&gt;">
										<path id="&lt;Path&gt;" class="s33" d="m1167.2 714.3c-10.4 5.9-57.3 8.5-57.3 8.1-4.5-38.7-33.2-157.1-33.2-158.4-0.3-15.1-4-51.1-7.1-79.6-13.5-6-25.1-13.9-25.1-13.9v-17.9l21.1-4c-0.2-1.3-0.3-2.3-0.3-3 8.1 5.1 34.3-7.8 55.5-20 15.1-8.7 27.7-16.9 29.6-18.1q2 6.8 3.4 14c2.6 13.1 4 27.1 4.5 41.3 1.3 38.6-3.7 79.5-7.1 112.2-0.2 2.5 16.2 139.2 16 139.3z"/>
										<path id="&lt;Path&gt;" class="s13" d="m1158.3 462.8c-37 9.8-76.1 11.7-113.8 5.6v-15.8l21.1-4c-0.2-1.3-0.3-2.3-0.3-3 8.1 5.1 34.3-7.8 55.5-20q2.8-0.3 5.6-0.6c9.1-0.9 18.3-2 27.4-3.5 2.6 13.1 4 27.1 4.5 41.3z"/>
									</g>
								</g>
							</g>
							<g id="&lt;Group&gt;">
								<g id="&lt;Group&gt;">
									<path id="&lt;Path&gt;" class="s16" d="m1077.3 257.3c0 0-38 38.5-42.5 14.4q-0.6-3.5-1.3-6.8c-5.6-26.3-12.3-40.8-12.3-40.8l30.6-33.6c0 0 6.7 28.1 10.9 41.3 0.5 1.4 0.9 2.7 1.3 3.7 3.1 8.5 13.3 21.8 13.3 21.8z"/>
									<path id="&lt;Path&gt;" class="s13" d="m1062.7 231.8c-7 13.1-17.1 24.5-29.2 33.1-5.6-26.3-12.3-40.8-12.3-40.8l30.6-33.6c0 0 6.7 28.1 10.9 41.3z"/>
								</g>
								<g id="&lt;Group&gt;">
									<g id="&lt;Group&gt;">
										<path id="&lt;Path&gt;" class="s16" d="m967 163.4c-0.4 4.5 3.7 20.7 10 33.4 0 0 1.6 50.1 47.8 58.1 2.8 0.5 5.7 0.1 8.3-1.1 9.5-4.5 32.4-19 34.6-53.9 0 0 10.2-2.2 8.4-15.5-2-14.5-14.4-6.4-14.4-6.4 0 0 5.2-56.9-40.9-47.3-46.1 9.6-52.4 19.5-53.8 32.7z"/>
										<path id="&lt;Path&gt;" class="s13" d="m1058.6 184.6c-0.8-6.2-6.3-10.9-12-13.3-5.8-2.4-12.1-3.2-18-5.3-6-2-11.8-5.8-13.8-11.8-4.7 6.9-13.2 11.1-20.4 15.4-7.2 4.3-14.6 9.5-17.5 17.4-5.3-4.1-10.9-8.9-11.3-15.5-0.2-3.3 1.1-6.6 2.7-9.6 8.7-17.3 26.1-29.8 45.2-32.7 7.3-1.1 15-0.8 21.6 2.6 6.4 3.2 11.1 8.9 15.6 14.5 3.4 4.3 6.9 8.7 9.1 13.7 2.3 4.9 3.4 10.7 1.8 16"/>
									</g>
									<g id="&lt;Group&gt;">
										<g id="&lt;Group&gt;">
											<path id="&lt;Path&gt;" class="s18" d="m1012.4 216q-0.2 0.1-0.5 0c-2.1-1.2-3.9-4.7-3.3-9.2 0.1-0.3 0.4-0.6 0.7-0.5 0.4 0 0.6 0.3 0.6 0.7-0.5 3.9 1 7 2.7 7.9 0.3 0.1 0.4 0.5 0.2 0.8q-0.1 0.3-0.4 0.3z"/>
										</g>
										<g id="&lt;Group&gt;">
											<g id="&lt;Group&gt;">
												<path id="&lt;Path&gt;" class="s19" d="m1029.5 195.8c0.9 3 0.3 5.8-1.5 6.4-1.8 0.5-4-1.4-4.9-4.3-1-3-0.3-5.8 1.4-6.4 1.8-0.6 4 1.4 5 4.3z"/>
												<path id="&lt;Path&gt;" class="s19" d="m1016.8 186.1c0 0 3.5-11 11.7-3.2 0 0-6.3-3.2-11.7 3.2z"/>
											</g>
											<g id="&lt;Group&gt;">
												<path id="&lt;Path&gt;" class="s19" d="m986.9 207.6c1 3 3.2 4.9 4.9 4.3 1.8-0.5 2.5-3.4 1.5-6.3-0.9-3-3.1-4.9-4.9-4.3-1.8 0.5-2.4 3.4-1.5 6.3z"/>
												<path id="&lt;Path&gt;" class="s19" d="m992.9 193.9c0 0-8.7-7.5-11.6 3.4 0 0 3.7-6 11.6-3.4z"/>
											</g>
										</g>
										<g id="&lt;Group&gt;">
											<path id="&lt;Path&gt;" class="s31" d="m1008.4 227.5c1.2-0.7 27.1-13.7 27.1-13.7 0 0 5.7 14.1-6.2 20.4-11.9 6.4-20.9-6.7-20.9-6.7z"/>
											<g id="&lt;Clip Group&gt;" clip-path="url(#cp12)">
												<path id="&lt;Path&gt;" class="s0" d="m1034.4 213.2c1.1 2-3.9 6.8-11.2 10.8-7.4 3.9-14.2 5.4-15.3 3.4-1.1-2.1 3.9-6.9 11.3-10.8 7.3-4 14.1-5.5 15.2-3.4z"/>
												<path id="&lt;Path&gt;" class="s32" d="m1019.2 239.4c-1.7-3.1 1.5-8.1 7.1-11.1 5.6-3 11.5-2.9 13.2 0.2 1.7 3.2-1.4 8.2-7 11.2-5.6 3-11.6 2.9-13.3-0.3z"/>
											</g>
										</g>
									</g>
									<g id="&lt;Group&gt;">
										<path id="&lt;Path&gt;" class="s20" d="m1072.9 177.3c-2.6-2.4-6.2-1.5-8.6-0.5l-5.1 12.2c-1.5-6.2-5.9-16.7-12.3-21-7.3-4.9-15.6-3.2-24.8-15.1-2.1-2.8-3.2-9.9-2.7-13.4 0.2-1.5-7.4 8.9-19.9 19.4-13.4 11.2-23.1 15.6-23.3 23-0.1 4.5-3.5-2.7-8-9.7 1 4.3 2.6 9.6 4.6 14.9-3.3-2.7-7.5-6.4-11-11.1-1.6-2.1-3.1-4.3-4.3-6.7-6.8-13.2 1.5-37.5 29-52.3 27.4-14.8 50.1-3.9 61.3 2.3 1.7 1 3.2 2.1 4.5 3.3 4.5 4.3 6.3 9.2 6.3 9.2 0 0 11.2 1.8 14.5 12.6 2.8 9.4 1.9 22.1-0.2 32.9z"/>
										<path id="&lt;Path&gt;" class="s34" d="m1052.3 122.6c-12.2-6.8-26.8-9.4-40.5-7-17.3 3.1-33 14-41.8 29.1-5.5 9.4-8.3 20.4-8.2 31.3-1.6-2.1-3.1-4.3-4.3-6.7-6.8-13.2 1.5-37.5 29-52.3 27.4-14.8 50.1-3.9 61.3 2.3 1.7 1 3.2 2.1 4.5 3.3z"/>
									</g>
								</g>
							</g>
							<g id="&lt;Group&gt;">
								<path id="&lt;Path&gt;" class="s35" d="m1159.2 447.7c-22.7 12-47.8 13.3-74.1 17.1-0.4 0.1-0.8 0.2-1.2 0.2-13.7 0.7-27.4 0.8-41.2 0.9-0.7-6.3-1.6-13.6-2.5-21.4-4.3-34.4-10.5-77.9-11.6-87-1.6-12.6-2.4-57.3 5.6-84.7 16.2 2.4 26.7-9.7 36.9-25.8 7.4 1.4 24.6 5.3 30.1 12.9 7.6 10.3 17.4 40.9 30.1 80.6 5.6 17.4 11.7 36.6 18.3 56.6 3.8 11.1 8.1 41.7 9.6 50.6z"/>
								<path id="&lt;Path&gt;" class="s9" d="m1159.2 447.7c-22.7 12-47.8 13.3-74.1 17.1-0.4 0.1-0.8 0.2-1.2 0.2-13.7 0.7-27.4 0.8-41.2 0.9-0.7-6.3-1.6-13.6-2.5-21.4 13.1-2.1 25.8-6.9 37-14 22.4-14.1 38.8-36.7 47.5-61.6 3.2-9.2 5.4-18.7 6.6-28.4 5.6 17.4 11.7 36.6 18.3 56.6 3.8 11.1 8.1 41.7 9.6 50.6z"/>
							</g>
							<g id="&lt;Group&gt;">
								<g id="&lt;Group&gt;">
									<path id="&lt;Path&gt;" class="s36" d="m1078 419.1h-111.9v-64.8h111.9z"/>
									<g id="&lt;Group&gt;">
										<path id="&lt;Path&gt;" class="s13" d="m991.5 404.3c-14.3-6.1-20.3-21.8-25.4-35v49.8h111.9v-8.6c-27 2.1-61.2 4.7-86.5-6.2z"/>
										<g id="&lt;Clip Group&gt;" clip-path="url(#cp13)">
											<path id="&lt;Path&gt;" class="s10" d="m1030.9 400.3h-17.7v-83.9h17.7z"/>
											<path id="&lt;Path&gt;" class="s0" d="m1024.5 389h-4.9v-83.9h4.9z"/>
										</g>
									</g>
								</g>
								<g id="&lt;Group&gt;">
									<g id="&lt;Group&gt;">
										<path id="&lt;Path&gt;" class="s16" d="m1049.5 419.8c-3.8 3.4-8.3 5.7-12.8 7.2-7.2 2.4-14.5 2.8-19.4 2.3-2.4-0.2-23.8 0-21.7-7.7 1.2-4.2 6.8-3.3 10-3.5 2.2-0.2 18.2-3.4 15-8.1-0.6-0.8-3.5-0.4-4.5-1.4-2.1-2.1-0.5-4.7 1.3-6.4 3.7-3.3 8.6-4.1 12.9-6.3 1.7-0.8 3.2-1.8 4.6-3.2 1.4-1.4 3.5 0.7 2.1 2.1q-0.8 0.9-1.7 1.6c1.8-0.5 3.6-0.9 5.5-1.2 1.1-0.1 2.3 0.1 3.2 0.6 1.9 1 3 3 2.2 5.2q-0.1 0.4-0.4 0.9c-1.7 3.1-3.1 6.4-4.8 9.5 4.2-2.3 8.1 3.8 4.9 7.3q-0.4 0.5-0.8 0.9 1.1-0.9 2.2-1.9c1.5-1.3 3.6 0.8 2.2 2.1z"/>
										<path id="&lt;Path&gt;" class="s13" d="m1049.5 419.8c-3.8 3.4-8.3 5.7-12.8 7.2-4.5-9.7-6.7-20.4-6.4-31.1 1.7-0.8 3.2-1.8 4.6-3.2 1.4-1.4 3.5 0.7 2.1 2.1q-0.8 0.9-1.7 1.6c1.8-0.5 3.6-0.9 5.5-1.2 1.1-0.1 2.3 0.1 3.2 0.6q1.1 2.6 2.2 5.2-0.1 0.4-0.4 0.9c-1.7 3.1-3.1 6.4-4.8 9.5 4.2-2.3 8.1 3.8 4.9 7.3q-0.4 0.5-0.8 0.9 1.1-0.9 2.2-1.9c1.5-1.3 3.6 0.8 2.2 2.1z"/>
									</g>
									<g id="&lt;Group&gt;">
										<path id="&lt;Path&gt;" class="s28" d="m1045.5 426.9c80.7-25.8 86.4-42.8 86.4-42.8 0-17.9-13.7-99.9-20.2-112.1-9.2-17.6-25.7-23.3-33.9-12.5-16.3 21.1 5.6 102.5 5.7 105.3 0 0.6-21 17.7-51.7 27.4 1.6 12.1 6.5 21.8 13.7 34.7z"/>
										<path id="&lt;Path&gt;" class="s13" d="m1106.1 366.8c-2.1-3.2-5.6-5.5-9.3-6.1-3.8-0.7-7.8 0.4-10.8 2.8 6.7-1.5 14.3-0.4 20.1 3.3z"/>
										<path id="&lt;Path&gt;" class="s13" d="m1097.2 378.6c0.2-3.3-0.9-6.7-3.1-9.2-2.1-2.6-5.2-4.3-8.5-4.7 5 3.5 8.8 8.5 11.6 13.9z"/>
									</g>
								</g>
							</g>
						</g>
					</g>
					<g id="&lt;Group&gt;">
						<path id="&lt;Path&gt;" class="s7" d="m881.5 753.4c0 7.2-58.6 13-131 13-72.4 0-131.1-5.8-131.1-13 0-7.2 58.7-13.1 131.1-13.1 72.4 0 131 5.9 131 13.1z"/>
						<g id="&lt;Group&gt;">
							<g id="&lt;Group&gt;">
								<g id="&lt;Group&gt;">
									<path id="&lt;Path&gt;" class="s16" d="m892.1 428.2q-0.2 0.2-0.4 0.2c-0.5 1.5-1.5 2.8-2.6 4q-0.1 0-0.1 0.1c-0.9 1.1-8.5 7.6-15.3 7.5-6-0.1-21.3-5.6-31.6-11.5-0.1 0-42-21.8-71.5-48.1-2.9-2.5-5.6-5.1-8.2-7.8-1.6-1.6 1.1-13.5 0.7-15.8-1.5-8.6-1-16-1-17.2q0-0.2 0.1-0.3c0.2-5.1 1.1-9.9 2.5-14.8q0.5-1.8 1-3.6 0 0 0-0.1 0.1-0.5 0.3-1.1c0.3-1 0.8-1.7 1.5-2.1 0.4-1.5 1.4-2.5 2.4-3.1 0.9-1 2.2-1.6 3.5-1.6 2.1-1.1 4.9-0.8 5.9 1.2q0-0.1 0-0.2c0.5-2.4 3.1-4 5.3-3.8 0.1-0.1 0.3-0.1 0.5-0.2 1.8 6.2 4.1 12.3 7.1 18 1.5 2.9 3.1 5.6 4.9 8.2-0.1 2-0.2 4-0.3 6 0.7 2.3 3.3 6 7 10.7 10.2 12.7 29.3 32.8 46.8 51.2 8.1-0.5 16.5-5 23.5 1.2q0 0 0 0c0.7 0.2 1.2 0.8 1.2 1.6 0 4.9-4.7 4.4-8.5 4.3q-0.4 0.3-0.8 0.6 8.2 6.5 17.7 11.3c1.9 0.7 3.2 1.1 3.8 1.3q0.4 0.1 0.7 0.4c0.4 0.1 0.7 0.2 1 0.5 0.2 0 0.5 0.1 0.7 0.1 0.2 0 0.4 0 0.6-0.1 0.4 0 0.9 0.2 1.2 0.5q0 0 0.1 0c1 0.3 1.2 2 0.3 2.5z"/>
									<path id="&lt;Path&gt;" class="s13" d="m803.8 352.8c-8.9 11.5-20.2 21.3-33.2 27.6-2.9-2.5-5.6-5.1-8.2-7.8-1.6-1.6 1.1-13.5 0.7-15.8-1.5-8.6-1-16-1-17.2q0-0.2 0.1-0.3c10.1-3.3 20.2-7.1 30-11.4 1.5 2.9 3.1 5.6 4.9 8.2-0.1 2-0.2 4-0.3 6 0.7 2.3 3.3 6 7 10.7z"/>
								</g>
								<path id="&lt;Path&gt;" class="s37" d="m759.1 263.5c-4.5 0.7-4.8 5.1 0.4 6.7q0.3 0.1 0.6 0.2c-0.3 0.7-0.4 1.5-0.2 2.3q1.6 5.9 3.2 11.8c-2.5 0.5-4.6 2.8-3.1 5.8 1.6 3.1 3.6 5.8 5.8 8.3q-0.2 1.7-0.4 3.4-2.5 14.7-5.1 29.4c-1 5.8 4.2 8.7 8.7 7.9q0.4 0.6 0.8 1.2c-2 0.9-3.2 2.4-3.8 4.1-4.8-1.7-9.5-4-14-7.1-7.8-5.5-16.9 6.2-9.1 11.6 9.9 6.8 20.9 11.1 32.3 12.5 10.1-4.9 20.4-10.1 29.9-16.1-7.2-21.4-21.7-85.7-46-82z"/>
							</g>
							<g id="&lt;Group&gt;">
								<path id="&lt;Path&gt;" class="s36" d="m917.5 441.2h-111.9v-64.9h111.9z"/>
								<g id="&lt;Group&gt;">
									<path id="&lt;Path&gt;" class="s13" d="m830.9 426.4c-14.2-6.1-20.3-21.8-25.3-35.1v49.9h111.9v-8.7c-27 2.1-61.2 4.7-86.6-6.1z"/>
									<g id="&lt;Clip Group&gt;" clip-path="url(#cp14)">
										<path id="&lt;Path&gt;" class="s10" d="m870.4 422.3h-17.7v-83.9h17.7z"/>
										<path id="&lt;Path&gt;" class="s0" d="m863.9 411h-4.8v-83.9h4.8z"/>
									</g>
								</g>
							</g>
							<g id="&lt;Group&gt;">
								<path id="&lt;Path&gt;" class="s16" d="m773.9 289.5c-12.7 8.2-48.6-32.8-48.6-32.8 0 0 9.8-8.9 14.6-18.1q0.4-0.8 0.8-1.6c3.2-7.1 10.1-24.8 14.1-34.9 1.7-4.4 2.8-7.3 2.8-7.3l8.9 12.4 16.9 23.6c0 0-7.7 7.9-17.4 32.9q-0.4 0.9-0.7 1.8c-0.4 1.1 6 8.9 4.8 14.1-1.3 5.7 6.2 8.3 3.8 9.9z"/>
								<path id="&lt;Path&gt;" class="s13" d="m783.4 230.8c0 0-7.7 7.9-17.4 32.9-10.8-5.8-20-14.5-26.1-25.1q0.4-0.8 0.8-1.6c3.2-7.1 10.1-24.8 14.1-34.9 4.1 1.1 8 2.9 11.7 5.1z"/>
							</g>
							<g id="&lt;Group&gt;">
								<g id="&lt;Group&gt;">
									<g id="&lt;Group&gt;">
										<path id="&lt;Path&gt;" class="s12" d="m798.6 757.1l-34.6-2.3c-4.8-0.3-13.9 0.6-17.6-3.4-1.3-1.4-2-3.4-2.3-5.6-0.3-2.1-0.3-4.5-0.2-6.6 0.1-1.7 0.2-3.2 0.2-4.4 0-10.2 0.6-20.3 1.6-30.4q0.1-0.9 0.2-1.9c0.5-5.3 7.6-4.3 9 0q0.3 0.9 0.2 2.1c-0.1 1.4-0.2 2.8-0.3 4.2 0.7 0.2 1.4 0.7 1.9 1.3 0.9 0.1 1.8 0.5 2.5 1.2 2.1-2.3 6.8-1.2 8 1.9 0.3 0.7 0.7 1.4 1 2.2 1.1-0.1 2.3 0.2 3.4 1.1 0.6 0.4 1.2 0.8 1.7 1.3 0.3 0.1 0.5 0.1 0.7 0.2 1.2 0.6 2.3 1.3 3.3 2-2.1-5.4 6.7-8.1 9.1-2.7 0.9 2.1 1.9 3.9 3 5.4 6.8 9.7 16.2 8.4 26.9 13.5 3.5 1.7 6.8 4.4 7.7 8.4 0.1 0.4 0.2 0.9 0.2 1.3 2.1 13.5-17.6 11.8-25.6 11.2z"/>
										<path id="&lt;Path&gt;" class="s13" d="m789.4 722.7c-5.8 4.9-13.7 8.3-21.3 10.8-7.9 2.6-16 4.3-24.2 5.7 0.1-1.7 0.2-3.2 0.2-4.4 0-10.2 0.6-20.3 1.6-30.4q4.6-0.9 9.2-1.9 0.3 0.9 0.2 2.1c-0.1 1.4-0.2 2.8-0.3 4.2 0.7 0.2 1.4 0.7 1.9 1.3 0.9 0.1 1.8 0.5 2.5 1.2 2.1-2.3 6.8-1.2 8 1.9 0.3 0.7 0.7 1.4 1 2.2 1.1-0.1 2.3 0.2 3.4 1.1 0.6 0.4 1.2 0.8 1.7 1.3 0.3 0.1 0.5 0.1 0.7 0.2 1.2 0.6 2.3 1.3 3.3 2-2.1-5.4 6.7-8.1 9.1-2.7 0.9 2.1 1.9 3.9 3 5.4z"/>
										<path id="&lt;Path&gt;" class="s14" d="m798.6 757.1l-34.6-2.3c-4.8-0.3-13.9 0.6-17.6-3.4-1.3-1.4-2-3.4-2.3-5.6 26.3 5.4 53.8 5.4 80.1 0.1 2.1 13.5-17.6 11.8-25.6 11.2z"/>
									</g>
									<g id="&lt;Group&gt;">
										<path id="&lt;Path&gt;" class="s38" d="m789.5 716.5c0 0.4-9.4 6.3-17.9 9.1-13.6 4.6-22.6 3.6-33.5-0.7-0.1 0-1.7-15.5-3.7-36-0.8-8.1-1.7-17-2.6-26-3.5-35-7.3-72.2-7.6-73.5-4.8-19.8-11.4-42.2-16.9-65.4-7.5-31.8-12.9-64.9-8.6-94.2 4.8 2 67 36.9 79.3 26.5 0.2 9.9 3.5 88 6.3 112.4 0.1 1.2 4.5 109.8 5.2 147.8z"/>
										<path id="&lt;Path&gt;" class="s13" d="m749.8 516.1c0.5 49.9-7.1 98.4-18 146.8-3.5-35-7.3-72.2-7.6-73.5-4.8-19.8-11.4-42.2-16.9-65.4 0.3-2.7 0.7-5.3 1.4-7.9 2.1-8.2 4.3-20.1 12.8-20.9q25.1-2.6 50.3-5.1c-3.1 9.8-13.7 20-22 26z"/>
									</g>
								</g>
								<g id="&lt;Group&gt;">
									<g id="&lt;Group&gt;">
										<path id="&lt;Path&gt;" class="s12" d="m719.2 754.7q0 2-0.4 3.5c-3.1 10.7-20.1 4.8-27.3 2.4l-33-10.8c-4.5-1.5-13.6-2.8-16.2-7.6-1-2-1.1-4.4-0.7-6.9 0.2-1.8 0.7-3.6 1.2-5.3 0.5-1.7 1-3.2 1.4-4.4 2.7-10.5 6-20.8 9.7-30.9 2-5.7 10.5-1.4 8.4 4.3q-0.7 2-1.4 4c0.7 0.4 1.2 1 1.5 1.8 0.9 0.3 1.7 0.9 2.2 1.7 2.6-1.7 6.9 0.5 7.3 3.8 0.2 0.8 0.3 1.6 0.4 2.4 1.1 0.2 2.2 0.7 3.1 1.9 0.4 0.5 0.9 1.1 1.3 1.7 0.2 0.1 0.4 0.2 0.6 0.4 1 0.9 1.9 1.8 2.7 2.7-0.7-5.8 8.5-6.3 9.5-0.4 0.5 3.3 1.4 5.9 2.5 8.1 4.5 9.1 13.3 10.5 21.9 17.6 2.9 2.5 5.4 5.9 5.3 10z"/>
										<path id="&lt;Path&gt;" class="s13" d="m692 727.1c-16.1 3.4-32.8 4.4-49.2 2.9 0.5-1.7 1-3.2 1.4-4.4 2.7-10.5 6-20.8 9.7-30.9 2-5.7 10.5-1.4 8.4 4.3q-0.7 2-1.4 4c0.7 0.4 1.2 1 1.5 1.8 0.9 0.3 1.7 0.9 2.2 1.7 2.6-1.7 6.9 0.5 7.3 3.8 0.2 0.8 0.3 1.6 0.4 2.4 1.1 0.2 2.2 0.7 3.1 1.9 0.4 0.5 0.9 1.1 1.3 1.7 0.2 0.1 0.4 0.2 0.6 0.4 1 0.9 1.9 1.8 2.7 2.7-0.7-5.8 8.5-6.3 9.5-0.4 0.5 3.3 1.4 5.9 2.5 8.1z"/>
										<path id="&lt;Path&gt;" class="s14" d="m718.8 758.2c-3.1 10.7-20.1 4.8-27.3 2.4l-33-10.8c-4.5-1.5-13.6-2.8-16.2-7.6-1-2-1.1-4.4-0.7-6.9 24.6 10.7 50.6 18.4 77.2 22.9z"/>
									</g>
									<g id="&lt;Group&gt;">
										<path id="&lt;Path&gt;" class="s38" d="m778.1 458.7q0 0.9-0.2 2c-1.9 10.5-19.2 32.4-32.7 36.2 0 0-40 189.2-48.7 226.2-0.1 0.4-15.9 3.2-24.5 1-11.4-2.9-20.6-5.7-30.1-12.5 0-1 20.5-82.9 22.7-106.9 3.3-35.8 2.9-89.7 8.6-135.2 2.2-17.9 5.4-34.4 10-48.1 1.6 0 3.2 0.2 4.7 0.4q5.7 0.6 11.4 1.1c22.9 14.5 67.8 41.1 78.8 35.8z"/>
										<path id="&lt;Path&gt;" class="s13" d="m778.1 458.7q0 0.9-0.2 2c-20.7 7.6-42.4 13-64.4 14.1-13.6 0.7-27.8-0.4-40.3-5.3 2.2-17.9 5.4-34.4 10-48.1 1.6 0 3.2 0.2 4.7 0.4q5.7 0.6 11.4 1.1c22.9 14.5 67.8 41.1 78.8 35.8z"/>
									</g>
								</g>
							</g>
							<g id="&lt;Group&gt;">
								<path id="&lt;Path&gt;" class="s15" d="m783.6 356.7c-0.2 9.1-0.8 38.8-1.3 64.2-0.4 21.5-0.8 40-0.8 40.3-3.9-0.2-76 14.5-108.8-14.5 0.3-1.1 5-53.2 12.9-100.7 5.3-32 12-61.9 19.9-73 7-9.9 21.6-20.5 27-23.7 0.3-1.3 4.9 16.9 23.3 24.5 6.3 2.6 12.3 3 13.5-1.4 8.9 18.9 14.5 71.4 14.3 84.3z"/>
								<path id="&lt;Path&gt;" class="s9" d="m782.3 420.9c-0.4 21.5-0.8 40-0.8 40.3-3.9-0.2-76 14.5-108.8-14.5 0.3-1.1 5-53.2 12.9-100.7q0.1 0.2 0.1 0.4 3.2 7.6 7.3 14.9c6.4 11.1 14.5 21.2 24.1 29.8 18 16.2 41.2 26.6 65.2 29.8z"/>
							</g>
							<g id="&lt;Group&gt;">
								<g id="&lt;Group&gt;">
									<path id="&lt;Path&gt;" class="s16" d="m867.6 441.5q-0.1 0.1-0.3 0.2c-0.2 1.6-0.9 3.1-1.8 4.4q0 0.1-0.1 0.2c-0.6 1.2-9.2 7.9-15.9 9.2-5.9 1.1-19.5 0.1-30.8-3.6-0.1-0.1-55.9-25.4-90.4-48.5-1-0.6-4.1-10.5-7.1-21.1-3.2-11.6-6.3-24-6.1-26.5 8.4-4.2 37.2-4.5 37.3-3.9 0.9 4.4 1.7 8.1 2.4 11.9 0.7 3.8 1.3 7.8 2 12.6 4.5 7.7 36.7 29.9 65.3 49.7 7.8-2.1 15.1-8.2 23.2-3.6q0 0.1 0 0.1c0.7 0 1.4 0.4 1.6 1.3 1 4.7-3.8 5.2-7.5 5.9q-0.4 0.4-0.7 0.7c1.9 4.8 6.3 7 13.2 8.8 1.9 0.3 9.8-0.8 10.4-0.8 0.3 0 0.6 0.1 0.8 0.3q0.6 0 1 0.3c0.3 0 0.5 0 0.8 0 0.2-0.1 0.4-0.2 0.5-0.2 0.5-0.2 1-0.1 1.4 0.1q0 0 0 0c1.1 0.1 1.6 1.7 0.8 2.5z"/>
									<path id="&lt;Path&gt;" class="s13" d="m754.8 363.8c-10.3 7.7-21.6 14-33.6 18.5-3.2-11.6-6.3-24-6.1-26.5 8.4-4.2 37.2-4.5 37.3-3.9 0.9 4.4 1.7 8.1 2.4 11.9z"/>
								</g>
								<path id="&lt;Path&gt;" class="s37" d="m710.7 372.6c14.9 0 34.3-8.6 50.8-17.1-0.8-8.6-9.3-68.5-19.6-79.9-10.3-8.2-29.5-9.1-37.7 12.5-6.8 17.6 4.3 73 6.5 84.5z"/>
							</g>
							<g id="&lt;Group&gt;">
								<g id="&lt;Group&gt;">
									<g id="&lt;Group&gt;">
										<path id="&lt;Path&gt;" class="s16" d="m834.5 172.8c-0.1 1.1-0.5 3.1-1.2 5.6-2.1 6.7-6.8 17.2-12.3 25.6 0 0-7.2 48.4-53 50.9-2.7 0.2-5.5-0.5-7.8-2-8.7-5.5-29.2-22.1-27.4-56.1 0 0-9.9-3.4-6.4-16 4.7-16.9 14.7-5.5 14.7-5.5 0 0 0-2.5 0.5-6.2 0.8-5.5 2.5-13.8 6.5-21.1q0-0.1 0-0.1c6.1-11.1 17.3-19.8 38-12.9 17.2 5.7 28.4 10.8 35.6 15.7 11.1 7.4 12.9 14.3 12.8 22.1z"/>
										<path id="&lt;Path&gt;" class="s13" d="m834.5 172.8c-0.1 1.1-0.5 3.1-1.2 5.6-1.2-2.5-2.8-4.7-5-6.5-18.4 7.4-41 4.1-57.1-7.3-6.8 8.3-16.2 14.4-26.5 17.1l-3.1-12.6-0.2-0.9c0.9-7.1 2.7-14.5 6.7-20.2q0-0.1 0-0.1c1.5-2 3.2-3.9 5.3-5.4 6.1-4.5 14.1-5.4 21.6-4.8 14.6 1.2 28.2 7.5 42.2 11.7q2.3 0.6 4.5 1.3c11.1 7.4 12.9 14.3 12.8 22.1z"/>
									</g>
									<g id="&lt;Group&gt;">
										<g id="&lt;Group&gt;">
											<path id="&lt;Path&gt;" class="s18" d="m788.3 217.2q0.2 0.1 0.5 0c2.2-1 4.4-4.3 4.3-9 0-0.3-0.3-0.6-0.7-0.6-0.3 0-0.6 0.3-0.6 0.7 0.1 4-1.7 6.9-3.5 7.7-0.4 0.1-0.5 0.5-0.4 0.8q0.1 0.3 0.4 0.4z"/>
										</g>
										<path id="&lt;Path&gt;" class="s19" d="m785 185.8c0 0-1.5-11.6-10.9-5.2 0 0 6.7-2.1 10.9 5.2z"/>
										<path id="&lt;Path&gt;" class="s19" d="m810.2 196.8c0 0 9.5-6.7 11.2 4.6 0 0-3-6.4-11.2-4.6z"/>
										<g id="&lt;Group&gt;">
											<path id="&lt;Path&gt;" class="s31" d="m797.6 229.5c-1.3-0.6-28.4-11.7-28.4-11.7 0 0-4.5 14.8 7.9 20.2 12.4 5.5 20.5-8.5 20.5-8.5z"/>
											<g id="&lt;Clip Group&gt;" clip-path="url(#cp15)">
												<path id="&lt;Path&gt;" class="s0" d="m770.3 217.1c-0.9 2.2 4.5 6.7 12.2 10 7.6 3.4 14.6 4.4 15.6 2.2 0.9-2.2-4.5-6.6-12.2-10-7.7-3.4-14.6-4.3-15.6-2.2z"/>
												<path id="&lt;Path&gt;" class="s32" d="m787.6 242.5c1.5-3.4-2.1-8.2-7.9-10.7-5.9-2.6-11.8-2-13.3 1.3-1.5 3.4 2.1 8.2 8 10.7 5.8 2.6 11.8 2 13.2-1.3z"/>
											</g>
										</g>
										<path id="&lt;Path&gt;" class="s19" d="m768.2 192c5.8-3.9 13.2-1.2 15 5.5 0.4 1.4-1.8 1.7-2.2 0.3-1.4-5-7.1-6.9-11.4-4-1.2 0.8-2.6-1-1.4-1.8z"/>
										<path id="&lt;Path&gt;" class="s19" d="m802.4 205.5c6.4-3 13.2 1 13.9 7.9 0.2 1.4-2.1 1.4-2.2-0.1-0.6-5.2-5.9-8-10.6-5.8-1.3 0.6-2.4-1.4-1.1-2z"/>
									</g>
								</g>
								<g id="&lt;Group&gt;">
									<path id="&lt;Path&gt;" class="s39" d="m846.3 158.6q0 0 0 0.1c-0.2 2.1-1 4-2.1 5.7 0.9 3.4 0.3 7.1-1.8 10-1.3 1.9-3.1 3.3-5.2 4.1 0 0.2-5.7 5.6-6.1 6 0.1-0.5 2.6-6.9 3.3-11.5-1.2-3.1-2.4-6.4-3-6.3-15.8 8.8-55.8 2-59.5-13.7 0 0-13.2 27.5-29.3 30.7 1.6-8.6-5.2-13.7-13.1-8.9-1.6-7.6-2.3-29.8-1.9-30.2 1.7-1.4-5.9-4.2-6.6-10.5-0.7-5.9 4.4-12.9 10.7-10.4q1.5 0.3 2.9 1c0.4-2.6 2-4.8 4.6-5.9 2.1-1 4.6-1.1 6.7-0.2 0.9-3.7 3.2-6.5 6.1-8.7q0 0 0.1 0c3.5-2.7 8-4.3 12.2-5 4.8-0.8 8.6 0.3 11.8 2.5q0.7-0.6 1.4-1.1c2.5-1.8 5.9-2.3 8.9-1.6 2.6 0.6 4.7 1.8 6.3 3.5 4.6-3.1 11.2-2.5 15 2.4 1.3 1.8 2.1 3.7 2.5 5.6 4.1 0.3 8 2.9 9.8 6.8q0.1 0.1 0.1 0.2c5.1 0 10.2 4.1 10.8 9.8q0.1 0.5 0 1c4.5 1.1 8.3 5.1 8.6 9.9q0.1 1.1-0.1 2.2c0.7 0.2 1.4 0.5 2.1 1 3.7 2.5 5.4 7.1 4.8 11.5z"/>
									<path id="&lt;Path&gt;" class="s40" d="m846.3 158.6q0 0 0 0.1c-2.6-3-6.2-5.3-10.3-6 0.1-2.8-0.9-5.7-2.7-7.8-1.8-2.2-4.2-3.5-7-3.9-0.3-2.7-1.7-5.2-3.9-6.8-2.2-1.5-6.2-2.4-8.8-1.8 0.2-2.1-0.6-4.4-2.2-5.9-1.6-1.5-3.6-2-5.8-1.7-1.3-3.1-4-5.6-7.2-6.7-3.2-1-6.2-0.2-9.1 1.6-1.7-2.4-4.3-4.2-7.3-4.9-2.9-0.7-6.7-0.4-9.4 0.9-3.9-3.9-9.4-6.3-14.9-6.4-1.9-0.1-3.8 0.1-5.6 0.6 3.5-2.7 8-4.3 12.2-5 4.8-0.8 8.6 0.3 11.8 2.5q0.7-0.6 1.4-1.1c2.5-1.8 5.9-2.3 8.9-1.6 2.6 0.6 4.7 1.8 6.3 3.5 4.6-3.1 11.2-2.5 15 2.4 1.3 1.8 2.1 3.7 2.5 5.6 4.1 0.3 8 2.9 9.8 6.8q0.1 0.1 0.1 0.2c5.1 0 10.2 4.1 10.8 9.8q0.1 0.5 0 1c4.5 1.1 8.3 5.1 8.6 9.9q0.1 1.1-0.1 2.2c0.7 0.2 1.4 0.5 2.1 1 3.7 2.5 5.4 7.1 4.8 11.5z"/>
								</g>
							</g>
						</g>
					</g>
				</g>
			</g>
		</g>
	</g>
</svg>